/* XPM */
static char *image[] = {
"48 48 94 2",
"   c None",
"00 c #ccccbb",
"10 c #666677",
"20 c #bbcccc",
"30 c #9999aa",
"40 c #443333",
"50 c #aa99aa",
"60 c #667766",
"70 c #99aaaa",
"80 c #aaaabb",
"90 c #ccccdd",
":0 c #113322",
";0 c #333344",
"A0 c #dd7766",
"B0 c #664455",
"C0 c #222233",
"D0 c #bb7755",
"E0 c #334433",
"F0 c #553333",
"G0 c #cc7777",
"H0 c #774455",
"I0 c #223322",
"J0 c #ffaa88",
"K0 c #667777",
"L0 c #443344",
"M0 c #aa5555",
"N0 c #995566",
"O0 c #665555",
"P0 c #ffcccc",
"Q0 c #ff8866",
"R0 c #776677",
"S0 c #777766",
"T0 c #332233",
"U0 c #bb4444",
"V0 c #aa4455",
"W0 c #333333",
"X0 c #777777",
"Y0 c #ccdddd",
"Z0 c #ddddee",
"a0 c #ddeeee",
"b0 c #774466",
"c0 c #ccbbcc",
"d0 c #ddbbcc",
"e0 c #773377",
"f0 c #773366",
"g0 c #eeeeff",
"h0 c #ddcccc",
"i0 c #cccccc",
"j0 c #ccddcc",
"k0 c #ddccdd",
"l0 c #eedddd",
"m0 c #ddeedd",
"n0 c #eeeedd",
"o0 c #eeddee",
"p0 c #ffeeee",
"q0 c #eeeeee",
"r0 c #ffeeff",
"s0 c #eeffff",
"t0 c #996666",
"u0 c #aaaa99",
"v0 c #887766",
"w0 c #887755",
"x0 c #aabb99",
"y0 c #aabbaa",
"z0 c #ddddcc",
"01 c #dddddd",
"11 c #bbaa99",
"21 c #ff6677",
"31 c #ccccaa",
"41 c #bbaaaa",
"51 c #ff7766",
"61 c #bbcc99",
"71 c #cccc99",
"81 c #eeddbb",
"91 c #ff77aa",
":1 c #eeccbb",
";1 c #bbbb99",
"A1 c #ddddbb",
"B1 c #ccbb99",
"C1 c #ccbbaa",
"D1 c #aaaaaa",
"E1 c #ffffff",
"F1 c #eeeebb",
"G1 c #eeeecc",
"H1 c #eeddcc",
"I1 c #555555",
"J1 c #666655",
"K1 c #ffffee",
"L1 c #000000",
"M1 c #ffffcc",
"N1 c #776655",
"O1 c #ffeebb",
"P1 c #666666",
"Q1 c #ffeecc",
"                                                                                                ",
"                                                                                                ",
"                                                                                                ",
"                                                Q1P1                                            ",
"                                              O1Q1Q1N1                                          ",
"                                            Q1Q1M1Q1Q1P1                                        ",
"                                          O1Q1Q1Q1O1Q1Q1N1                                      ",
"                                        Q1Q1M1Q1Q1Q1M1Q1Q1P1                                    ",
"                                      O1Q1Q1Q1L1Q1Q1Q1O1Q1Q1N1        K1J1                      ",
"                                    Q1Q1M1Q1I1Q1M1L1Q1H1G1H1F1P1  E1E1E1J1                      ",
"                                  O1Q1Q1Q1D1Q1Q1D1F1H1L1C1B1I1K1E1E1E1E1E1J1                    ",
"                                Q1Q1M1Q1L1Q1M1L1A1C1I1D1I1E1E1E1E1E1E1E1E1P1                    ",
"                              O1Q1Q1Q1L1Q1Q1D1A1C1B1L1K1E1E1E1E1E1E1E1E1E1E1N1                  ",
"                            Q1Q1M1Q1I1Q1A1L1;1D1I1E1E1E1E1E1E1E1E1E1E1E1E1E1J1                  ",
"                          O1Q1Q1Q1I1:1B1L1D1C1K1E1E1E1E1E1E1E1E1I191E1E1E1E1E1J1                ",
"                        Q1Q1M181D1A171L161E1E1E1E1E1E1E1E1E151I1E1E1E1E1E1E1E1N1                ",
"                      O1Q1Q181L1C1B1C1K1E1E1E1E1E1E1E1E1L1D1E1E1E1E1E1E1I1E1E1E1N1              ",
"                    Q1Q1M141I1C131E1E1E1E1E1E1E1E1E1D121E1E1E1E1E1E1I121E1E1E1E1J1              ",
"                  O1Q11141L1D1K101z001z001z001z021L101z001z001z021I101z001z001z001J1            ",
"                Q141y041I1E10141x041y041x041L121x041y041x041I1I1x041y041x041I141x0P1            ",
"              E1C1w0v0u04111v0w0t0w0v0w0L1N1N1N1N1N1N1N1L1I1N1N1N1N1N1N1L1L1N1N1N1N1N1          ",
"    s0E1s0E1s0E1s0E1s0E1s0E1s0E1s0E1s0E1s0E1s0E1s0E1s0E1s0E1s0E1s0E1s0E1s0E1s0E1s0E1s0E1        ",
"    r0q0p0q0p0q0q0q0o0q0o0n0o0n0o0m0o001o001l0010101l0010101k001k0z0k0z0k0j0k0i0k0i0h0s0I1      ",
"    s0g0f0e0d0e0c0e0b0q0a0q0a0q0m0o0m0o0m0Z0m00101Z0m00101010101Y001Y001k0j0k0i0k0h0j0s0L1X0    ",
"    E1q0p0q0q0q0q0q0q0n0o0n0o0m0o0m0o0m0l001l001l0010101010101z0k0z0k0j0j0W0V0U0V0T0h0s0L1S0R0  ",
"    s0g0f0e0f0q0f0q0f0e0a0q0m0o0m0o0m0Z0m0Z001Z0m00101010101Y001Y001j0k0k0Q0P0O0N0M0i0s0L1L0K0  ",
"    r0q0q0q0q0q0q0n0o0n0o0m0o0m0o0m0l001l001l0010101010101z0k0z0k0j0k0j0j0J0I0H0G0F0h0s0L1E0R0  ",
"    s0q0f0e0b0q0f0q0b0e0f0e0m0o0m0Z0m0Z0m0Z0m00101010101Y001Y001j0k0j0k0k0D0C0I0B0A0j0s0L1;0K0  ",
"    E1q0p0q0q0n0o0n0o0n0o0n0o0m0l001l001l0010101010101z0k0z0k0z0k0z0k0j0j0C0I0C0I0:0i0s0L1W0R0  ",
"    s0g0q0q0q0q0q0q0a0o0a0o0m0o0m0o0m0Z0m00101Z0010101010101Y0k0Y0k0j090j0k0j090j0i0i0s0L1L0K0  ",
"    r0q0q0q0o0q0o0n0o0n0o0m0o001o001l001010101010101k001k0z0k0z0k0j0k0i0k0i0h0i0i0i0k0s0L1E0R0  ",
"    s0q0a0q0q0q0a0q0a0q0y080m0o0D1Z0D10170Z0m001Y0010101Y001Y001j0k0j090j090j0i0i0i001s0L1;0K0  ",
"    E1q0q0q0q0n0o0n0o0m0L1S0R0j0h0S0L060L1i0R0E0R00101z0k0z0k0j0k0j0k0j0h0i0h0i0h0i001s0L1W0R0  ",
"    s0q0q0q0a0q0a0q0m0Z0m0Z0m0Z0m0Z0m0Z0m0Z0m0Z00101Y001Y001j0k0j0k0j090j090i090i0i001s0L1L0K0  ",
"    r0q0q0n0o0n0o0m0o0m0R060l001L0D150W00101400150z0k0z0L0j0k0j0k0j0h0i0i0i0h0i0i0i0k0s0L1E0R0  ",
"    s0q0a0q0a0q0m0o0m0o0K090K0L070L1j0;0E0R0L1016050L101E030j0k0j090j0i0j090j0i020i001s0L1;0K0  ",
"    E1n0o0n0o0m0o0m0o001l001l001l001l001l001l001l001l001l0j0k0j0h0i0h0i0h0i0i0i0i0j001s0L1W0R0  ",
"    s0q0a0q0m0o0m0o0m0Z0K0k0L1D1j0L0j0D1j0R07001Y0R0m010Y0R0W09060k0W090j0i0i0i0i0k001s0L1L0K0  ",
"    r0n0o0m0o0m0o0m0l001R060h060D160R0W0R0j0L1P1k06040P1k0W040P1P1P140i0i0i0c0i0i0j0k0s0L1E0R0  ",
"    s0q0m0o0m0o0m0Z0m0Z0m0Z0m0Z001010101Y001Y0Z0j0k0j0k0j090j090j090j0i0i0i0i0i0209001s0L1;0K0  ",
"    E1n0o0n0o0m0l001l001l0010101010101z0k0z0k0z0k0z0k0j0h0i0h0i0h0i0i0i0i0i0i000c0j001s0L1W0R0  ",
"    s0o0a0o0m0o0m0o0m0Z0m00101Z0010101010101Y0k0Y0k0j0k0j0k0j090j0i0i0i0i0i020i020k001s0L1L0K0  ",
"    r0n0o0m0o001o001l001010101010101k001k0j0k0z0k0j0k0i0k0i0h0i0i0i0i0i0k0j0k0i0k0j0k0s0L1E0R0  ",
"    s0q0m0o0m0o0m0Z0m0010101m001Y0010101Y0010101Y0010101Y0010101Y0010101Y0010101Y00101s0L1;0K0  ",
"    E1m0o0m0o0m0l0s0s0s0s0s0s0s0s0s0s0s0s0s0s0s0s0s0s0s0s0s0s0s0s0s0s0s0s0s0s0s0s0s0s0s0L1W0R0  ",
"      L1L1L1L1L1L1L1L1L1L1L1L1L1L1L1L1L1L1L1L1L1L1L1L1L1L1L1L1L1L1L1L1L1L1L1L1L1L1L1L1L1L1L0K0  ",
"        R0E040W0L0E040W0L0E040W0L0E040W0L0E040W0L0E040W0L0E040W0L0E040W0L0E040W0L0E040W0L060R0  ",
"            K0X060X0K0X060X0K0X060X0K0X060X0K0X060X0K0X060X0K0X060X0K0X060X0K0X060X0K0X060X0    "};
