/* XPM */
static char *image[] = {
"48 48 64 1",
"  c None",
"0 c #616186",
"1 c #515586",
"2 c #516171",
"3 c #415161",
"4 c #101408",
"5 c #080818",
"6 c #414161",
"7 c #284551",
"8 c #867986",
"9 c #414141",
": c #8e8269",
"; c #414151",
"A c #283051",
"B c #303841",
"C c #183041",
"D c #283041",
"E c #202041",
"F c #d7cfb6",
"G c #413020",
"H c #d7c396",
"I c #696561",
"J c #514541",
"K c #000808",
"L c #515171",
"M c #183018",
"N c #282018",
"O c #200820",
"P c #494951",
"Q c #615d59",
"R c #102020",
"S c #181410",
"T c #000000",
"U c #080808",
"V c #514161",
"W c #183028",
"X c #182028",
"Y c #082018",
"Z c #080800",
"a c #000008",
"b c #61658e",
"c c #515959",
"d c #282028",
"e c #283420",
"f c #494969",
"g c #617186",
"h c #69828e",
"i c #f7f3ef",
"j c #9e8e8e",
"k c #717196",
"l c #7171a6",
"m c #7979a6",
"n c #868296",
"o c #718296",
"p c #799296",
"q c #9ebab6",
"r c #8682a6",
"s c #8692a6",
"t c #e7e3df",
"u c #9e9ebe",
"v c #8e8aae",
"w c #dfdbcf",
"x c #cfc7cf",
"y c #e7e3ef",
"                  yyx                           ",
"                ywvuuwx                         ",
"             ytxuvsrrvqwx                       ",
"           yyquvvpvprprsuwt                     ",
"         ytusvsvsrrrorrrnvuxw                   ",
"      ytxuvvvsvpvmrmlmlolmrsutt                 ",
"    ttuvvvsvrvrrmromolokkkokrjuxw               ",
"  iwvsvvvsvsvpvmrolololhkgkhlolgfe              ",
"  idcjsrsrrrrrmmomolokkkgbgbgbfaZa              ",
"  iYXWcsvpvmrmrolololhkgkgkgVUUTUU              ",
"  iSRXRdQvsrmmomkkkkkkgbgbPaZaZONR              ",
"  iRXWXMXPLsrmmokhkgkgkgfKUKUSNMJji             ",
"  iXMdWdWdWPIromokgkgbPaZaZONNNjHHGJtF          ",
"  iWEWDWDDDWdPQmmokgVUUKURNRdjHHJNJHwGx  xtW    ",
"  idWEWEeDDDDDePQkPaZaZOSNNjHHGNGHHGSSjytjPa    ",
"  iWDWDCDBABABAC;KUKURRNN:HHGeJHHGRRjytpfCXK    ",
"  yDeDDDBBB9B9;9BaUSSNNjHHGGQHHGSS8ytj9XWEXU    ",
"  iCDBDBA797;7;76U5G5jHHGeIHFGN4jyxp;XXXECXK    ",
"  yDDDB9B9B9;;;6;aUGUIeGQHHGRS8ytj9ORXRdWEXa    ",
"  iBABA7;7;767636K5G5:5:HcNRjytp;YXYXYX:ceEU    ",
"  y9B9B;;;;;;VPVPaUGUIUINNNytj9SYSYORXReHJXU    ",
"  i7;7;76;6;6363fU59SJ5:5:5wQYSYOYXYXWjF:eXK    ",
"  y979;;;6PV3V3VfaUVnPUIUIUxPSYOY:cdjF:BXXWa    ",
"  i7;76P6P63f3L3LTUY6ovR5:5wcYXYXGjF:9XWDBEU    ",
"  y;;;;6PV3V3VfLfTZTTS3jeNUxcSRXRXRdRXWAB9W5    ",
"  y7636363f3LfLfLTUW5T55QpdwQYXXEWDCDBA767EU    ",
"  y6;63V3V3LfLfLLTZ9XETTU5QxcXXdWEDDDA79;6W5    ",
"  t333L3L3L2LcL21TUY;7EWaT5wQREWDCABA77763E4    ",
"  tV3VfLfLfL2Q212TZTTS;DWdTxcdXEWDDAB9;6;VXS    ",
"  t3L3L3L2L212120TATaT5WABEwQWECDDA7A767AYS     ",
"  tVfLfLLL2Q21212aBB;TTTXdDxQEWEDAB976DO5X      ",
"  tcLcL2L21202010K0mvB5TaTXwQWDCABA7;Y5W        ",
"  tLfLLL2Q2121Q00auk;dWEUTTxQEDDB9BXYd          ",
"  t2L2121201010bbUu3ECDCAD5wQCABAXSW            ",
"  tLL121212000g0gUqVWEWDDABxQDDO5Se             ",
"  t21211010b0bbggUu3DCABABAhQW5Y5Y              ",
"  FL21Q02000gbgbg4ufWEDAB97XUS5EYS              ",
"   WL101bgbgbgkgk4u3DDABA7;CEDA3XY              ",
"    R9g00bgbgbgbgSqVDADA7976;63VRSI8            ",
"     CX2bgbgkglgl4u3ABA7;767637Y5YP:8           ",
"      CdBbgbgkklkSufDAB979;6PXRRMBP8p           ",
"        DW0glglhlYu3A7;7676WOUee;Q8p            ",
"         CM9glklkSqLD979;EYUeB9P:8p             ",
"           eD2lmlYucA76CXUU9PP8pj               ",
"            CC;lmSuLBERSUJ9PI88                 ",
"              DCLRuBOY59;PI8n                   ",
"               eRSDSU99JQ88j                    ",
"                QM5MPI88v                       "};
