/* XPM */
static char *GNUstep[] = {
/* columns rows colors chars-per-pixel */
"48 48 199 2 ",
"   c black",
".  c #010101",
"X  c #020202",
"o  c gray1",
"O  c #040404",
"+  c gray2",
"@  c #060606",
"#  c #070707",
"$  c gray3",
"%  c #090909",
"&  c gray4",
"*  c #0B0B0B",
"=  c #0C0C0C",
"-  c gray5",
";  c #0E0E0E",
":  c gray6",
">  c #101010",
",  c gray7",
"<  c #131313",
"1  c gray8",
"2  c #151515",
"3  c #161616",
"4  c gray9",
"5  c #181818",
"6  c #191919",
"7  c gray10",
"8  c #1B1B1B",
"9  c gray11",
"0  c #1D1D1D",
"q  c #1E1E1E",
"w  c gray12",
"e  c #202020",
"r  c gray13",
"t  c #222222",
"y  c #232323",
"u  c gray14",
"i  c #252525",
"p  c gray15",
"a  c #272727",
"s  c #282828",
"d  c gray16",
"f  c #2A2A2A",
"g  c gray17",
"h  c #2D2D2D",
"j  c gray18",
"k  c #2F2F2F",
"l  c gray19",
"z  c #313131",
"x  c #323232",
"c  c gray20",
"v  c #343434",
"b  c #353535",
"n  c gray21",
"m  c #373737",
"M  c gray22",
"N  c #393939",
"B  c #3A3A3A",
"V  c gray23",
"C  c #3C3C3C",
"Z  c gray24",
"A  c #3E3E3E",
"S  c #414141",
"D  c gray26",
"F  c gray27",
"G  c #515151",
"H  c #535353",
"J  c #555555",
"K  c #585858",
"L  c #5D5D5D",
"P  c #5F5F5F",
"I  c #606060",
"U  c gray39",
"Y  c DimGray",
"T  c #6A6A6A",
"R  c gray42",
"E  c #6C6C6C",
"W  c #6D6D6D",
"Q  c gray43",
"!  c #747474",
"~  c gray47",
"^  c gray48",
"/  c #7B7B7B",
"(  c #7C7C7C",
")  c gray49",
"_  c gray50",
"`  c #808080",
"'  c gray51",
"]  c gray52",
"[  c #868686",
"{  c gray53",
"}  c #888888",
"|  c #898989",
" . c gray54",
".. c #8B8B8B",
"X. c gray55",
"o. c #8D8D8D",
"O. c #8E8E8E",
"+. c gray56",
"@. c #909090",
"#. c gray57",
"$. c #929292",
"%. c #939393",
"&. c gray58",
"*. c gray59",
"=. c #979797",
"-. c #989898",
";. c #9A9A9A",
":. c #9B9B9B",
">. c gray61",
",. c #9D9D9D",
"<. c gray62",
"1. c #9F9F9F",
"2. c #A0A0A0",
"3. c gray63",
"4. c gray64",
"5. c #A4A4A4",
"6. c #A5A5A5",
"7. c gray65",
"8. c #A7A7A7",
"9. c gray66",
"0. c #A9A9A9",
"q. c #AAAAAA",
"w. c gray67",
"e. c #ACACAC",
"r. c gray68",
"t. c #AEAEAE",
"y. c #AFAFAF",
"u. c gray69",
"i. c #B1B1B1",
"p. c #B2B2B2",
"a. c gray70",
"s. c #B4B4B4",
"d. c gray71",
"f. c #B6B6B6",
"g. c #B7B7B7",
"h. c gray72",
"j. c #B9B9B9",
"k. c gray73",
"l. c #BBBBBB",
"z. c #BCBCBC",
"x. c gray74",
"c. c gray",
"v. c gray75",
"b. c #C0C0C0",
"n. c #C1C1C1",
"m. c gray76",
"M. c #C3C3C3",
"N. c gray77",
"B. c #C5C5C5",
"V. c #C6C6C6",
"C. c gray78",
"Z. c #C8C8C8",
"A. c gray79",
"S. c #CACACA",
"D. c #CBCBCB",
"F. c gray80",
"G. c #CDCDCD",
"H. c #CECECE",
"J. c gray81",
"K. c #D0D0D0",
"L. c gray82",
"P. c #D2D2D2",
"I. c LightGray",
"U. c gray83",
"Y. c #D5D5D5",
"T. c gray84",
"R. c #D7D7D7",
"E. c #D8D8D8",
"W. c gray85",
"Q. c #DADADA",
"!. c gray86",
"~. c gainsboro",
"^. c #DDDDDD",
"/. c gray87",
"(. c #DFDFDF",
"). c gray88",
"_. c #E1E1E1",
"`. c #E2E2E2",
"'. c gray89",
"]. c #E4E4E4",
"[. c gray90",
"{. c #E6E6E6",
"}. c #E7E7E7",
"|. c gray91",
" X c #EAEAEA",
".X c gray92",
"XX c #ECECEC",
"oX c gray93",
"OX c #EEEEEE",
"+X c gray94",
"@X c gray95",
"#X c #F4F4F4",
"$X c #F6F6F6",
"%X c #F8F8F8",
"&X c gray98",
"*X c gray99",
"=X c #FDFDFD",
"-X c white",
";X c None",
/* pixels */
";X;X;X;X;X;X;X;X;X;X;X;X;X;X;X;X;X;X;X;X;Xt u s s s t ;X;X;X;X;X;X;X;X;X;X;X;X;X;X;X;X;X;X;X;X;X",
";X;X;X;X;X;X;X;X;X;X;X;X;X;X;X;X;Xk Z Z B x x x x n x B Z Z k ;X;X;X;X;X;X;X;X;X;X;X;X;X;X;X;X;X",
";X;X;X;X;X;X;X;X;X;X;X;X;X;Xs B B x s t 7 3 3 > - 3 3 7 t s x B B s ;X;X;X;X;X;X;X;X;X;X;X;X;X;X",
";X;X;X;X;X;X;X;X;X;X;X;Xx B n s 7 > * # #             # # * > 7 s n B x ;X;X;X;X;X;X;X;X;X;X;X;X",
";X;X;X;X;X;X;X;X;X;Xt Z B s 7 - #                             # - 7 s n Z u ;X;X;X;X;X;X;X;X;X;X",
";X;X;X;X;X;X;X;X;Xx Z k 0 -                                         - 0 k Z x ;X;X;X;X;X;X;X;X;X",
";X;X;X;X;X;X;X;Xn B u 3 #                                             # > s B x ;X;X;X;X;X;X;X;X",
";X;X;X;X;X;X;Xx B u >                                           * # * # * 3 s B n ;X;X;X;X;X;X;X",
";X;X;X;X;X;Xn n t -                                           # j.y.w.w.8.8.8.;.+.( #         J ",
";X;X;X;X;Xx B t *                                             * =XXX|.XX|.[.[.T.z.w.`         w.",
";X;X;X;Xu Z s >                                               * =X|.[.[.).).).^.I.g.4.L       w.",
";X;X;X;XB k 3                                                 # =X[.[.[.).).).^.T.B.y.;.t     w.",
";X;X;Xk n 0 #                                                 * &X[.[.).).^.^.Q.Q.I.j.8.!     w.",
";X;X;XB s -                                                   # &X).).^.^.Q.Q.T.T.T.B.y.*.x   w.",
";X;Xs n 7                                                     * #X).).^.^.Q.T.T.I.I.H.j.8.I   w.",
";X;XB s -                                                     # #X).^.Q.Q.Q.T.I.I.I.I.b.w.$.7 8.",
";X;XB t #                                                     * +X^.^.Q.T.T.T.I.H.H.H.B.y.w.n w.",
";Xk x >                                                       # +X^.Q.Q.T.T.I.I.H.H.H.S.j.4.Y w.",
";XZ u *                                                       * XXQ.T.T.T.I.H.H.H.H.S.B.z.8.$.8.",
";XZ t #                                                       # XXT.T.T.I.I.H.H.S.S.B.B.z.w.,.w.",
";Xn 7                                                         * |.T.T.I.I.H.H.S.S.B.B.B.z.y.;.w.",
"t n 7                                                         # |.T.I.I.H.H.H.S.S.B.B.B.z.y.*.w.",
"u n >                                                         # [.I.I.H.S.H.S.B.B.B.b.b.z.y.*.w.",
"s x >                           t t t t t t t t 0 t t t 0 t 0 u ).H.H.H.S.S.S.B.B.b.b.b.z.a.*.w.",
"s x >                           z.b.b.z.z.z.j.j.g.g.a.a.y.y.y.w.T.H.H.S.S.S.S.B.b.b.b.z.j.w.*.8.",
"s n 3                           [.+XXXXX|.[.[.[.).^.^.Q.Q.T.T.I.H.H.H.S.B.B.B.b.B.b.z.j.j.w.$.w.",
"t n 3                           [.|.|.[.[.).).^.^.Q.Q.T.T.I.I.H.H.S.S.S.B.B.b.b.z.z.j.j.g.8.$.w.",
";XB 7                           ).XX[.[.[.).^.^.Q.Q.T.T.I.I.H.H.H.S.B.S.B.B.b.b.z.z.j.j.a.,.+.w.",
";XZ 0 #                         ).|.[.).).).^.Q.Q.T.I.I.I.I.H.S.S.S.B.B.B.b.b.z.z.j.j.g.a.;.$.8.",
";XZ s *                         ^.|.).).^.^.^.Q.T.T.I.I.H.H.S.S.S.B.B.b.b.b.z.j.j.j.g.a.w.$.{ w.",
";Xk x >                         Q.[.).).^.^.Q.T.T.T.I.I.H.S.S.S.S.B.B.b.b.z.j.j.g.g.a.a.4.+.L w.",
";X;XB 7 #                       Q.[.).^.Q.Q.T.T.I.I.H.H.H.S.S.B.B.b.b.b.z.z.j.g.g.a.a.y.;.$.x w.",
";X;XZ s *                       Q.).^.Q.Q.Q.T.I.I.I.H.S.S.S.B.B.b.b.b.z.j.j.j.g.a.a.y.8.$.` 7 w.",
";X;Xs n 7                       T.^.^.Q.T.T.T.I.H.H.H.S.S.B.B.B.b.b.b.z.j.g.g.g.a.y.y.;.| H   w.",
";X;X;XZ s -                     I.^.Q.T.T.I.I.H.H.H.S.S.B.B.B.B.b.b.z.j.g.g.a.a.y.y.4.$.( s   w.",
";X;X;Xx n 7 #                   I.Q.Q.T.T.I.H.H.H.S.S.B.B.B.b.b.z.z.j.j.g.a.a.y.y.w.*.{ I     w.",
";X;X;X;XZ k 3                   I.Q.T.I.I.I.H.H.S.S.S.B.b.b.b.z.z.j.g.g.a.a.a.y.y.,.| ~ t     w.",
";X;X;X;Xu B u -                 H.T.T.I.H.H.H.S.S.B.B.B.B.b.z.z.j.j.g.a.a.a.y.y.,.$.` H       w.",
";X;X;X;X;XB n t *               H.T.I.I.H.H.S.S.B.B.B.b.b.b.z.j.j.g.g.a.y.y.y.4.$.{ R         w.",
"J J J J J J D K D n n B n B n k H.I.I.H.H.S.S.B.B.B.b.b.z.z.j.j.g.g.a.y.y.w.4.$.| R *         w.",
"J           7 { y.a.z.S.S.B.B.b.I.I.H.H.S.S.S.B.b.B.b.z.j.j.g.g.a.a.a.y.y.,.$.| R 3           w.",
"J             t $.a.z.S.T.Q.T.T.I.H.S.S.S.B.B.B.B.b.b.z.j.j.g.g.a.a.y.w.,.$.{ Q 7             w.",
"J               - +.8.a.z.S.I.I.H.H.S.S.B.B.B.B.b.b.z.j.j.j.g.a.y.y.8.*.| ` Q                 w.",
"J                   Q ,.y.a.z.B.H.S.S.B.B.B.b.b.z.z.j.j.g.g.a.y.8.,.$.| ~ J                   w.",
"J                     k ( ,.w.y.g.j.b.b.b.b.z.z.z.j.g.g.a.y.4.;.$.+.` I u                     w.",
"J                         B R ,.8.8.8.y.a.a.a.a.a.y.w.4.,.*.$.+.{ J x                         w.",
"                              0 D ~ ;.,.;.;.*.;.*.$.$.+.$.| R B 7                             w.",
"w.w.w.w.w.w.w.w.w.w.w.w.w.w.w.y.w.w.w.w.w.w.8.w.w.w.w.w.8.w.w.w.w.w.w.w.w.w.w.w.w.w.w.w.w.w.w.w."
};
