/* XPM */
static char *image[] = {
"48 48 210 2",
"   c None",
"00 c #901a11",
"10 c #9b1a11",
"20 c #a25c5d",
"30 c #ffcc22",
"40 c #cec5c2",
"50 c #c8c7c8",
"60 c #b0a39d",
"70 c #651012",
"80 c #e3e2e3",
"90 c #eae9e9",
":0 c #eecc33",
";0 c #454243",
"A0 c #d9d9d9",
"B0 c #676465",
"C0 c #4d494a",
"D0 c #686566",
"E0 c #5a5757",
"F0 c #817e7f",
"G0 c #5a5656",
"H0 c #d7d7d7",
"I0 c #dcdcdc",
"J0 c #e4e3e4",
"K0 c #ecebeb",
"L0 c #efeeee",
"M0 c #eae9ea",
"N0 c #dedddd",
"O0 c #d2d1d1",
"P0 c #d2d2d2",
"Q0 c #d4d4d4",
"R0 c #d5d4d5",
"S0 c #dddcdc",
"T0 c #dedede",
"U0 c #dfdfdf",
"V0 c #d4d3d3",
"W0 c #d5d4d4",
"X0 c #d7d5d6",
"Y0 c #d8d7d8",
"Z0 c #dad9d9",
"a0 c #dddcdd",
"b0 c #dfdede",
"c0 c #f1f0f0",
"d0 c #5a5758",
"e0 c #e0dfe0",
"f0 c #e8e7e8",
"g0 c #ecebec",
"h0 c #e1e0e0",
"i0 c #e4e3e3",
"j0 c #e5e4e4",
"k0 c #e7e6e6",
"l0 c #ebeaea",
"m0 c #eeeded",
"n0 c #e2e1e1",
"o0 c #d6d5d6",
"p0 c #d7d6d6",
"q0 c #d8d7d7",
"r0 c #d9d7d8",
"s0 c #d9d8d9",
"t0 c #dbd9da",
"u0 c #dbdada",
"v0 c #dcdbdb",
"w0 c #dcdbdc",
"x0 c #dedcdd",
"y0 c #deddde",
"z0 c #dfdedf",
"01 c #e1e0e1",
"11 c #e1e1e1",
"21 c #e2e1e2",
"31 c #5b5758",
"41 c #e3e3e3",
"51 c #e6e6e6",
"61 c #e9e9e9",
"71 c #ededed",
"81 c #eff0f0",
"91 c #e4e4e4",
":1 c #e7e7e7",
";1 c #e8e8e8",
"A1 c #e9e8e8",
"B1 c #eaeaea",
"C1 c #ebebeb",
"D1 c #ececec",
"E1 c #edecec",
"F1 c #eeeeee",
"G1 c #efefef",
"H1 c #efeff0",
"I1 c #f1f1f1",
"J1 c #f2f2f2",
"K1 c #f4f4f4",
"L1 c #f5f5f5",
"M1 c #f6f6f6",
"N1 c #767474",
"O1 c #e8e7e7",
"P1 c #e5e5e5",
"Q1 c #737071",
"R1 c #d5d5d5",
"S1 c #d1d0d1",
"T1 c #cecdce",
"U1 c #cbcbcb",
"V1 c #bebdbe",
"W1 c #767374",
"X1 c #e6e5e5",
"Y1 c #e3e2e2",
"Z1 c #726f70",
"a1 c #d3d2d3",
"b1 c #cfcece",
"c1 c #cccbcc",
"d1 c #c9c8c9",
"e1 c #c5c4c4",
"f1 c #757273",
"g1 c #e2e2e2",
"h1 c #e0dfdf",
"i1 c #d0cfcf",
"j1 c #cccbcb",
"k1 c #c9c8c8",
"l1 c #c6c5c5",
"m1 c #c2c1c1",
"n1 c #757272",
"o1 c #e0e0e0",
"p1 c #706d6e",
"q1 c #bfbfbf",
"r1 c #737070",
"s1 c #dddddd",
"t1 c #dadada",
"u1 c #6f6c6d",
"v1 c #cbcaca",
"w1 c #c3c3c3",
"x1 c #b9b8b9",
"y1 c #b7b5b6",
"z1 c #b4b3b4",
"02 c #716e6f",
"12 c #dbdbdb",
"22 c #d8d8d8",
"32 c #6e6c6c",
"42 c #c8c8c8",
"52 c #c4c3c4",
"62 c #c1c0c1",
"72 c #bebebe",
"82 c #b7b6b7",
"92 c #b4b3b5",
":2 c #b2b1b2",
";2 c #333132",
"A2 c #3b3738",
"B2 c #6f6d6e",
"C2 c #d9d8d8",
"D2 c #d6d6d6",
"E2 c #6e6b6c",
"F2 c #c6c6c6",
"G2 c #c2c1c2",
"H2 c #bcbbbc",
"I2 c #b8b7b7",
"J2 c #b2b2b3",
"K2 c #b0afb0",
"L2 c #393435",
"M2 c #f0f0f0",
"N2 c #6d6a6b",
"O2 c #d6d5d5",
"P2 c #d3d2d2",
"Q2 c #a5a5a5",
"R2 c #a4a2a2",
"S2 c #a1a0a0",
"T2 c #b0aeaf",
"U2 c #c3c2c2",
"V2 c #bfbebe",
"W2 c #bcbbbb",
"X2 c #b9b8b8",
"Y2 c #b5b4b5",
"Z2 c #b2b2b2",
"a2 c #2c2829",
"b2 c #661111",
"c2 c #e4d9db",
"d2 c #ffffff",
"e2 c #e7e6e7",
"f2 c #454142",
"g2 c #474344",
"h2 c #f3f3f3",
"i2 c #d3d3d3",
"j2 c #d1d0d0",
"k2 c #cecdcd",
"l2 c #c9c9c9",
"m2 c #c7c6c6",
"n2 c #c4c3c3",
"o2 c #c1c0c0",
"p2 c #bdbcbc",
"q2 c #bab9b9",
"r2 c #b7b6b6",
"s2 c #b3b3b3",
"t2 c #b0b0b0",
"u2 c #afafaf",
"v2 c #373334",
"w2 c #949293",
"x2 c #000000",
"y2 c #363233",
"z2 c #d4c2c5",
"03 c #700512",
"13 c #640f0b",
"23 c #9c625d",
"33 c #701012",
"43 c #651007",
"53 c #811612",
"63 c #900f11",
"73 c #851a11",
"83 c #a51a1c",
"93 c #a50f11",
":3 c #b00f11",
";3 c #b01a11",
"A3 c #b01a1c",
"B3 c #a51a11",
"C3 c #ffbb22",
"D3 c #eebb22",
"E3 c #eecc22",
"                                                                                                ",
"                                                                                                ",
"E3D3E3C3E3D3E3C3E3D3                                                        D3E3C3E3D3E3C3E3D3E3",
"E3B3A3;3A3B3A3;3A3E3                                                        E3A3;3A3B3A3;3A3B3E3",
"E3:3;3;3;3:3;3;3E3                                                            E3;3;3:3;3;3;3:3E3",
"E3;3A3B3A3;3A3E3                                                                E3A3;3A3B3A3;3E3",
"E3A3;3:3;3A3;393E3                                                            E393;3A3;3:3;3A3E3",
"E3B3A3;3A3B3837363E3                                                        E3637383B3A3;3A3B3E3",
"E3:3;3;3;39353634333E3                                                    E33343635393;3;3;3:3E3",
"E3;3A3E3837363733323                                                        233373637383E3A3;3E3",
"E3A3E3  E363130323z2y2y2x2w2v2v2x2u2u2t2s2r2q2p2o2n2m2l2k2j2i2h2g2f2f2y2e2d2c223034363E3  E3A3E3",
"E3E3      E3b223    y2y2x2x2a2a2x2u2u2Z2Y2X2W2V2U2T2S2R2Q2P2O2N2y2y2y2y2y2M2    2333E3      E3E3",
"            E3      y2L2y2a2a2a2x2K2J2Y2I2H2V2G2F2E2a2a2a2D2C2B2y2y2y2y2y2x2      E3            ",
"                    A2;2y2a2a2a2x2:29282q27262524232a2a2a2221202y2y2y2y2y2x2                    ",
"                    y2y2y2a2a2a2x2z1y1x1H2o2w1F2v1u1a2a2a2t1s1r1y2y2y2y2y2x2                    ",
"                    y2y2y2a2a2a2x2r2q2p2q1n2m2l2k2p1a2a2a2s1o1n1y2y2y2y2y2x2                    ",
"                    y2y2y2a2a2a2x2X2W2V2m1l1k1j1i102a2a2a2h1g1f1y2y2y2y2y2x2                    ",
"                    y2y2y2a2a2a2x2H2V2m1e1d1c1b1a1Z1a2a2a2Y1X1W1y2y2y2y2y2x2                    ",
"                    y2y2y2a2a2a2x2V162n2m2U1T1S1R1Q1a2a2a2P1O1N1y2y2y2y2y2x2                    ",
"                    y2y2y2y2y2y2x2x2x2x2x2x2x2x2x2x2y2y2y2x2x2x2y2y2y2y2y2x2                    ",
"                    y2y2y2y2y2y2y2y2y2y2y2y2y2y2y2y2y2y2y2y2y2y2y2y2y2y2y2x2                    ",
"                    y2y2y2x2x2x2x2x2x2x2x2x2x2x2x2x2x2x2x2x2x2x2x2x2a2y2y2x2                    ",
"                    y2y2y2x2M1L1K1h2J1I1M2H1G1F1E1D1C1B1A1;1:1X1P191a2y2y2x2                    ",
"                    y2y2y2x2L1K1h2J1I1M281G1F171D1C1B161;1:151P1914131y2y2x2                    ",
"                    y2y2y2x2K1h2J1I1M281G1F171D1C1B161;1:151P19141g131y2y2x2                    ",
"                    y2y2y2x2h2g1211101o1h1z0y0x0w0v0u0t0s0r0q0p0o0n031y2y2x2                    ",
"                    y2y2y2x2J1I1M281G1F1m0D1C1l061;1O1k0P1j0i0g1n0h031y2y2x2                    ",
"                    y2y2y2x2J1I1M2G1G1F171g0C1B1A1f0:151j09141n011e0d0y2y2x2                    ",
"                    y2y2y2x2c001o1z0b0y0a0v012u0Z0C2Y0q0X0O2W0V0P2z0d0y2y2x2                    ",
"                    y2y2y2x2M281G1F171D1C1B161;1:151P19141g111o1U0T0d0y2y2x2                    ",
"                    y2y2y2x281h1z0y0a0S0v0u0Z0Z022q0p0X0R0Q0V0P0O0N0d0y2y2x2                    ",
"                    y2y2y2x2G1F1m0D1C1l0M0;1:1k0P191i0Y111h0h1T0N0S0d0y2y2x2                    ",
"                    y2y2y2x2L0F171K0C1B161O1e251j0J041g101h1U0N0S0I0d0y2y2x2                    ",
"                    x2x2y2x2m0U0b0N0S0I0v0t1Z0C222q0H0p0O2R0Q0i2P212d0y2x2x2                    ",
"                    G0F0y2x271D1C1B161;1:151P19141g111o1U0T0s1I012t1E0y2D0x2                    ",
"            E3      C0B0y2x2D1C1B161;1:151P19141g111o1U0T0s1I012t1A0E0y2;0x2      :0            ",
"E3D3      D343      y2y2y2x2C1B190;1:1k0X191i080n0h0h1b0N0S0w0u0Z0H0a2y2y2x2      43D3      D3E3",
"E3B3E3  E3737070  6050Q1Q1Q1Q1Q1Q1Q1Q1Q1Q1Q1Q1Q1Q1Q1Q1Q1Q1Q1Q1Q1Q1Q1Q1Q1Q1x240  703373E3  E3B3E3",
"E3:3;330B363536343    x2x2x2x2x2x2x2x2x2x2x2x2x2x2x2x2x2x2x2x2x2x2x2x2x2x2  2043635363B330;3:3E3",
"E3;3A3B3A31063733370E3                                                    :0b233736310A3B3A3;3E3",
"E3A3;3:3;3A3B36300D3                                                        D37363B3A3;3:3;3A3E3",
"E3B3A3;3A3B3A310E3                                                            E310A3B3A3;3A3B3E3",
"E3:3;3;3;3:3;330                                                                30;3:3;3;3;3:3E3",
"E3;3A3B3A3;3A3B3:0                                                            E3B3A3;3A3B3A3;3E3",
"E3A3;3:3;3A3;3:3;3D3                                                        D3;3:3;3A3;3:3;3A3E3",
"E3E3E3E3E3E3E3E3E3E3                                                        E3E3E3E3E3E3E3E3E3E3",
"                                                                                                ",
"                                                                                                "};
