/* XPM */
static char *image[] = {
"48 48 117 2",
"   c None",
"00 c #403030",
"10 c #d0e0f0",
"20 c #e0d0f0",
"30 c #303040",
"40 c #f0e0e0",
"50 c #e0f0e0",
"60 c #d0e0d0",
"70 c #e0e0e0",
"80 c #e0e0f0",
"90 c #203030",
":0 c #303020",
";0 c #303030",
"A0 c #8080b0",
"B0 c #8080a0",
"C0 c #302030",
"D0 c #203020",
"E0 c #8090b0",
"F0 c #302020",
"G0 c #90a0c0",
"H0 c #304030",
"I0 c #404040",
"J0 c #708080",
"K0 c #202010",
"L0 c #404030",
"M0 c #403040",
"N0 c #202020",
"O0 c #102020",
"P0 c #304040",
"Q0 c #a0b0d0",
"R0 c #c0b0e0",
"S0 c #d0d0f0",
"T0 c #c0d0e0",
"U0 c #d0c0e0",
"V0 c #b0a0d0",
"W0 c #9090c0",
"X0 c #201020",
"Y0 c #707060",
"Z0 c #a090b0",
"a0 c #102010",
"b0 c #607070",
"c0 c #c0b0d0",
"d0 c #b0b0d0",
"e0 c #b0a0c0",
"f0 c #a0b0c0",
"g0 c #a090c0",
"h0 c #90a0b0",
"i0 c #9090b0",
"j0 c #8090a0",
"k0 c #9080b0",
"l0 c #707080",
"m0 c #201010",
"n0 c #808070",
"o0 c #708070",
"p0 c #807080",
"q0 c #807070",
"r0 c #707070",
"s0 c #706070",
"t0 c #101020",
"u0 c #706060",
"v0 c #302050",
"w0 c #001010",
"x0 c #101010",
"y0 c #101000",
"z0 c #90a0a0",
"01 c #202030",
"11 c #a090a0",
"21 c #100010",
"31 c #90a090",
"41 c #100000",
"51 c #00f010",
"61 c #00f020",
"71 c #000010",
"81 c #102040",
"91 c #203050",
":1 c #202050",
";1 c #202040",
"A1 c #909090",
"B1 c #001000",
"C1 c #607060",
"D1 c #606070",
"E1 c #506060",
"F1 c #505060",
"G1 c #9090a0",
"H1 c #606050",
"I1 c #606060",
"J1 c #506050",
"K1 c #605060",
"L1 c #605050",
"M1 c #908090",
"N1 c #000000",
"O1 c #a0a0c0",
"P1 c #b0c0d0",
"Q1 c #c0c0e0",
"R1 c #d0e0e0",
"S1 c #809090",
"T1 c #505050",
"U1 c #a0a0a0",
"V1 c #a0b0a0",
"W1 c #a0a0b0",
"X1 c #a0b0b0",
"Y1 c #b0a0b0",
"Z1 c #b0b0c0",
"a1 c #b0b0b0",
"b1 c #b0c0b0",
"c1 c #b0c0c0",
"d1 c #c0c0c0",
"e1 c #c0c0d0",
"f1 c #d0c0d0",
"g1 c #c0d0d0",
"h1 c #d0d0d0",
"i1 c #d0d0e0",
"j1 c #e0d0e0",
"k1 c #e0f0f0",
"l1 c #f0e0f0",
"m1 c #f0f0f0",
"n1 c #c0b0c0",
"n1m1l1k1l1m1l1k1j1i1i1h1i1h1i1g1f1g1f1g1f1e1e1d1e1d1e1c1n1c1n1b1n1a1Z1a1a1a1Y1X1Y1X1W1V1W1U1W1T1",
"S1Z1k1l1k1l1k1l1k1l1k1i1R1i1g1i1g1i1g1Q1g1e1e1e1P1e1c1e1c1Z1c1Z1c1Z1X1Z1X1Z1X1O1X1W1X1W1X1W1T1N1",
"M1S1L1T1K1T1K1J1K1J1K1I1K1H1K1I1I1I1K1I1I1I1I1I1I1I1K1I1I1H1K1I1K1J1K1J1K1J1K1T1K1T1L1T1T1T1N1N1",
"S1G1J1F1J1F1E1I1J1I1E1I1E1I1I1I1E1D1I1I1I1D1C1I1I1D1I1I1E1I1I1I1E1I1E1I1J1K1J1K1J1F1J1F1T1N1B1N1",
"A1A1K1N1N1N1N1N1N1N1N1N1N1N1N1N1N1N1N1N1N1N1N1N1N1N1N1N1N1N1N1N1N1N1N1N1N1N1N1N1N1N1N1N1U1N1N1N1",
"A1G1J1N1;1;1;1:191;181;1;1;181;1;1;181;1;1;181;1;1;181;1;1;181;1;1;181;1;1;181;1;1;181;1U171N171",
"G1A1K1N1;1;1:1;1;1;1;16161516161;1;1;16161516161;1;1;1;16151616161;1;1;16151616161;1;1;1U1N141N1",
"31G1E1N181:191;181;161;181;1;16181;161;181;1;16181;1;16181;1;1;181;1;16181;1;1;181;1;1;1U171B121",
"1131K1N1;1;1:101;1;16101;1;16101;1;16101;1;16101;1;1;151;1;1;101;1;1;151;1;1;101;1;1;101U1B121B1",
"z011E1N191:181;1;16181;1;1;161;1;16181;1;1;161;1;1;161;1;1;181;1;1;161;1;1;181;1;1;181;1U121B121",
"11z0K1N1:1:1;1;1;15161616151;1;1;15161616151;1;1;1;16161615161;1;1;16161615161;1;1;1;1;1U1B121y0",
"z0W1E1N191;1;1;161;1;1;181;1;1;161;1;1;161;1;1;18161;1;181;1;1;18161;1;181;1;1;181;1;1;1U1x0w0x0",
"U1U1I1N1v0;1;10161;1;101;1;1;10161;1;10161;1;101;161;101;1;1;101;161;101;1;1;101;1;1;101U1y0x0y0",
"V1W1I1N1;1;18161;1;181;1;1;18161;1;181;161;181;161;181;1;1;181;161;181;1;1;181;1;1;181;1U1x0w0x0",
"W1U1I1N1;1;1;161;1;1;1;1;1;1;161;1;1;1;161;1;1;16151616161;1;1;161;1;1;1;1;1;1;1;1;1;1;1U1x021x0",
"X1W1C1N181;1;1;181;1;1;181;1;1;181;1;1;181;1;1;181;1;1;181;1;1;181;1;1;181;1;1;181;1;1;1U1x0x0x0",
"Y1X1u0N1;1;1;101;1;1;101;1;1;101;1;1;101;1;1;101;1;1;101;1;1;101;1;1;101;1;1;101;1;1;101U1x0x0x0",
"X1Y1C1T1m1m1m1m1m1m1m1m1m1m1m1m1m1m1m1m1m1m1m1m1m1m1m1m1m1m1m1m1m1m1m1m1m1m1m1m1m1m1m1m1U1t0x0t0",
"Y1X1u0C1s0C1s0r0r0r0q0r0p0o0p0o0p0o0p0n0p0o0p0o0p0o0p0r0p0r0q0r0r0r0s0r0s0C1s0I1s0I1I1I1K1x0m0x0",
"X1Z1C1s0C1r0r0r0r0l0o0k0j0i0h0g0h0O1f0e0f0d0c1e1P1Q1e1e1P1c0c1d0Z1d0f0r0b0s0b0s0C1D1C1I1E1t0a0t0",
"Z1a1s0C1s0r0r0r0q0r0p0i0Z0h0O1W1e0f0e0Z1c0c1e1e1f1e1e1e1c0e1c0Z1n1Z1e0N1s0Y0s0C1s0I1I1I1K1a0X0a0",
"c1Z1C1s0b0r0r0l0o0l0o0W0h0O1O1V0f0d0P1c0P1Q1e1U0g1Q1e1Q1e1c0P1d0P1d0f0N1N1r0b0s0C1s0I1D1I1X0a0X0",
"Z1a1s0C1s0r0r0r0r0r0p0O1e0f0V0Z1d0P1c0e1Q1g1U0i1U0e1U0e1e1P1c0d0c0Z1V0N1N1N1s0C1s0I1I1I1I1a0X0a0",
"c1Z1C1r0b0r0o0r0o0l0o0V0f0d0P1d0P1Q1g1U0T0S0T0i1T0Q1g1Q1P1R0P1d0P1d0Q0N1N1N1P0r0C1D1C1I1E1X0O0N0",
"n1c1s0C1s0r0r0r0q0r0p0Z1c0d0c0e1e1e1U0i1j1i1i1g1U0e1Q1e1c0e1c0d0c0Z1d0N1N1N1M0L0M0I1I1I1I1K0X0K0",
"c1e1C1s0b0r0r0l0o0p0o0d0P1c0P1Q1g1U0T0S0i1i1T0Q1T0Q1P1R0P1c0d0d0d0d0f0N1N1N1P0M0P0s0I1D1I1N0O0N0",
"c0c1s0Y0s0r0q0r0p0o0p0Z1c0P1c0e1U0g1U0i1U0e1U0e1e1P1c0d0c0Z1V0Z1V0f0e0N1N1N1M0L0M0C1u0I1I1K0X0N0",
"c1e1C1r0b0r0o0l0o0l0J0d0P1c0e1Q1g1i1T0U0g1Q1e1e1P1d0P1d0f0d0f0e0f0O1O1N1N1N1P0I0H0D1C1I1E1N0N0N0",
"e1d1s0C1s0r0r0r0q0o0p0c1c0e1e1e1U0g1U0e1e1e1c0c1c0Z1d0Z1e0f0e0O1O1W1g0N1N1N1M0L0M0I1I1I1K1N0N0N0",
"g1e1C1s0b0r0r0l0o0p0o0c0P1Q1e1U0g1Q1e1Q1P1c0P1d0d0d0f0V0f0O1O1O1G0O1h0N1N1N1P0M0P0s0I1D1I1N0N001",
"e1d1s0C1s0r0r0r0l0o0p0P1e1e1f1e1e1e1c0e1c0Z1d0Z1e0f0e0O1O1W1g0W1g0i0Z0N1N1N1M0L0M0I1I1I1I1N0F0N0",
"g1e1C1r0b0r0r0r0o0l0o0e1P1Q1g1e1P1e1P1d0c1d0f0Z1f0O1f0O1h0g0h0Z0h0i0E0N1N1N1P0I0H0D1I1I1E101D001",
"f1g1s0C1s0r0r0r0q0r0p0d1f1e1e1d1c0c1c0Z1e0Z1e0X1e0W1O1W1Z0i0Z0G1i0G1k0N1N1N1M0L0M0I1I1I1K1N0C0D0",
"g1i1C1s0b0r0b0r0r0l0o0e1e1e1c1c0c1d0Z1d0f0e0f0O1W1O1h0g0h0i0i0i0j0k0j0N1N1N1P0M0P0D1I1I1E1C0D001",
"U0g1u0I1s0C1s0r0r0r0q0d1c0c1n1Z1Z1Z1e0f0e0W1O1W1Z0h0Z0i0i0G1k0j0k0B0B0N1N1N1M0L0M0I1I1I1K1D0C0D0",
"g1i1C1D1C1s0b0r0b0r0o0e1P1e1c1d0c1d0f0Z1f0O1X1O1h0g0h0Z0h0i0i0i0j0A0j0N1N1N1P0I0H0D1I1I1E1C0D0;0",
"i1h1I1I1u0C1s0C1s0Y0s0e1f1e1e1c1c0Z1n1Z1e0Z1e0X1e0W1e0W1W1W1Z0h0Z0G1k0N1N1N1M0L0M0I1I1H1K1:0C0D0",
"R1i1I1D1C1s0C1D1C1s0c1d0c1d0c1d0c1d0c1d0c1c0c1d0c1d0Z1d0Z1Z1f0e0X1W1z0N1N1N1P0M0P0I1E1K1E1;090;0",
"i1i1K1I1I1I1u0I1s0C1f1e1f1e1f1e1f1e1f1e1f1g1f1e1f1e1f1e1e1d1c0d1n1a1Y1N1N1N1M0L0M0J1K1H1K1:0C0;0",
"R1S0E1I1I1D1C1I1I180R170R180R170R180R170R170R170R1i1R1j160i1h1i1g1e1c1N1N1N1P0I0H0I1E1I1J1;090;0",
"j1R1K1H1K1I1I1I1m1m1m1m1m1m1m1m1m1m1m1m1m1m1m1m1m1m1m150l150l17040h1T1N1N1N1M0L0M0H1K1J1K1;0;0:0",
"R180J1K1I1I1E1I1I1I1I1T1T1T1T1T1T1T1T1T1T1T1T1T1T1T1T1T1T1T1T1T1T1T1T1N1N1N1P0M0P0K1J1F1J1;0;030",
"20R1K1H1K1H1K1H1K1H1K1U1U1U1U1U1U1U1U1U1U1U1U1U1U1U1U1U1U1U1U1U1U1U1U1N1N1N1M0L0M0J1K1T1K1;0;0;0",
"1080J1K1J1K1E1I1E1I1I1N1N1N1N1N1N1N1N1N1N1N1N1N1N1N1N1N1N1N1N1N1N1N1N1N1N1N1P0I0H0F1J1F1J130H0;0",
"8080L1J1K1H1K1J1K1I1I1L0M0L0M0L0M0L0M0L0M0L0M0L0M0L0M0L0M0L0M0L0M0L0M0L0M0L0M0L0M0J1K1T1L1;000;0",
"k180H030H0;0;0;0;0;090C0N1N1N1N1N1N1N1N1N1N1N1N1N1N1N1N1N1N1N1N1N1N1N1N1N171N171B171N171N1M0H030",
"e1T100;0;0;0;0;0C0:0C0:0C0y021x021y021y021B121y021B121B121B121N121N141N141N141N121N141N1N1N100;0",
"J130H0;0;0;0;0;090;090;0D001D001D001D0N0O0N0O0N0a0X0a0X0a0t0a0x0x0x0x0x0w0x0w0x0B171B171B171N130"};
