/* XPM */
static char *image[] = {
"48 48 53 1",
"  c None",
"0 c #b5ccbb",
"1 c #688b6b",
"2 c #475a4a",
"3 c #5c7a59",
"4 c #517655",
"5 c #93a896",
"6 c #6c9b6c",
"7 c #909093",
"8 c #75a279",
"9 c #0b0b04",
": c #8eb394",
"; c #465d4a",
"A c #5b636e",
"B c #477647",
"C c #3e6545",
"D c #000000",
"E c #1e451e",
"F c #758276",
"G c #49664b",
"H c #656e65",
"I c #202f24",
"J c #314e34",
"K c #5e775c",
"L c #7c957d",
"M c #3a7740",
"N c #0f1407",
"O c #547356",
"P c #48594b",
"Q c #aaafaa",
"R c #98a19a",
"S c #a8b5ae",
"T c #3d4c40",
"U c #7b8c7c",
"V c #88a189",
"W c #c8d9c8",
"X c #38453a",
"Y c #588055",
"Z c #4c7d50",
"a c #94ad97",
"b c #cbdace",
"c c #a4b9ac",
"d c #0d260d",
"e c #211b16",
"f c #232a25",
"g c #030803",
"h c #526952",
"i c #648365",
"j c #6b886d",
"k c #b7c6ba",
"l c #0f1308",
"m c #131e13",
"n c #283928",
"                         nnnnmmllm              ",
"                kkkkkkkkjihggfffnned            ",
"              ckkkkkbkaaZYgfffnnnnnXd           ",
"             akkkWkcaVVUYgfnfnnnnnXTTd          ",
"             kkkckSaRVjigfffnnnnTTTThd          ",
"            kWkcaQVUjjihgffnnnXnTTTPPhe   ndn   ",
"           TkkaaRVUiUiOOPNnnnnTTTPPPhMd nNddn   ",
"           SaVVULUUKKhhJ dInnTTPTPPhPhPdehnn    ",
"           aRVUijiOOHOhg  dnTTTPhPhGGGhOOGd     ",
"         nVRjFiKKHOhGhED  ennTTPPhPhhOKOPd      ",
"         nULjiOOhOGOGGgC   dnThPhGOKOOOKnn      ",
"        nKUUiKOhOhhhhEg    dnTPhPhhOKjjBe       ",
"         ndTKOhOGGGGGgA     NPhGOKOijjjN        ",
"           ndThhh;h;Eg     ddhhOhOKijjnn        ",
"             nN;GhGGdC  nNdThGOKOKjjiTd         ",
"               ndThhd   edddedddeddded   nnd    ",
"                 nddA                  nnThN    ",
"dFkkkkkkkkcV:gT    n                 nnPPhPPd   ",
" d9jkkkkkk:::8N                    nnTGGhGGGd   ",
"  P99kcccS::VVnn                 nnPPhPhPhhhTd  ",
"   7Xk:c:::VVLjd                nThGGGhGGhGhOd  ",
"    :::V:VLVLjiHd               nhPhPhPhhOhKhKe ",
"   T::RVVLLLjiOOnn               nGGhGOhOOiOiKdd",
"   VR86jjiiiOOKOKPm               nGKhOOijijjLiN",
"   5LLUUiOKhOhOeOhnn              nPOKOijULULiKd",
"   LLjiiOOKOKONnddTm               nOOijjLLjiH4d",
"   TU3iOOhKKOnd   mm          m    nTUUjUUjiHKXd",
"   nOiOOKOKOKgT               m     nOijjjiOGTd ",
"    POKOOhOhng               WD     nPKOKKhGPPe ",
"    nOOOKOKOgT               kg      nOHOGGGTN  ",
"     TKKOhKXg               aWg      nXPPPnmed  ",
"      KOKOKg9NddNNdEEEEE    bbdNNndnnnnnNddnN   ",
"      PhOhnDffnXTT22hPhe   cbWkkkaVLKOhPXnnnd   ",
"       OKOgmfnnTTT2GGhGd  TbWkkkcaLUOGhPTnnd    ",
"       FOngfnnnT2T22hhKd naWkkcaRL1KhhPPXnnd    ",
"       nKg9fnnXTT22hGOid  0k0kaRVUiOOGTTnnd     ",
"       nPgffnXXT22hhOKienckkkcVVUUKOhPTnnIe     ",
"        ngfnnTTT2hGOO11d c0kca8VL1OGhPTnIN      ",
"        n9fnnXTT22hhiLLd  kkSaV1KKhhTTXnId      ",
"         NfnnTT22GKO18V9  caaRLFKhGPPXTIN       ",
"          dnnX22hPKULVcg  nQQVFKhhPPXXId        ",
"           mmT2GGOK8Vcad  nVRUOOOPPTENd         ",
"             edddedddedd    VKgggggge           ",
"                           nRKg                 ",
"                             OD                 ",
"                             Fg                 ",
"                              d                 ",
"                              d                 "};
