/* XPM */
static char *image[] = {
"48 48 95 2",
"   c None",
"00 c #44aa66",
"10 c #55ff77",
"20 c #44dd66",
"30 c #117711",
"40 c #66cc88",
"50 c #88ffaa",
"60 c #88ff99",
"70 c #99ffaa",
"80 c #66ff77",
"90 c #aaffbb",
":0 c #99ffbb",
";0 c #aaffaa",
"A0 c #204f20",
"B0 c #44cc44",
"C0 c #33cc55",
"D0 c #44cc66",
"E0 c #55dd77",
"F0 c #449944",
"G0 c #66dd66",
"H0 c #55dd66",
"I0 c #77dd77",
"J0 c #002200",
"K0 c #44dd55",
"L0 c #77dd99",
"M0 c #002211",
"N0 c #173917",
"O0 c #77ee88",
"P0 c #22cc33",
"Q0 c #33cc44",
"R0 c #33cc33",
"S0 c #001111",
"T0 c #44cc55",
"U0 c #22aa22",
"V0 c #000000",
"W0 c #44aa55",
"X0 c #339944",
"Y0 c #338833",
"Z0 c #44aa44",
"a0 c #55cc55",
"b0 c #229933",
"c0 c #22aa33",
"d0 c #33aa44",
"e0 c #66dd88",
"f0 c #228833",
"g0 c #228822",
"h0 c #55bb66",
"i0 c #66cc66",
"j0 c #77cc88",
"k0 c #88dd99",
"l0 c #229922",
"m0 c #227733",
"n0 c #118822",
"o0 c #117722",
"p0 c #116622",
"q0 c #114422",
"r0 c #004411",
"s0 c #33bb44",
"t0 c #66cc77",
"u0 c #88dd88",
"v0 c #99ddaa",
"w0 c #227722",
"x0 c #225522",
"y0 c #44bb44",
"z0 c #55bb55",
"01 c #55cc66",
"11 c #77cc77",
"21 c #99dd99",
"31 c #aaeeaa",
"41 c #66ee88",
"51 c #005511",
"61 c #33aa33",
"71 c #22bb33",
"81 c #66dd77",
"91 c #aaeebb",
":1 c #66ff88",
";1 c #116633",
"A1 c #112211",
"B1 c #114411",
"C1 c #001100",
"D1 c #339933",
"E1 c #33bb33",
"F1 c #44bb55",
"G1 c #77dd88",
"H1 c #88ee99",
"I1 c #99ee99",
"J1 c #99eeaa",
"K1 c #226622",
"L1 c #003311",
"M1 c #003300",
"N1 c #113311",
"O1 c #116611",
"P1 c #115511",
"Q1 c #115522",
"R1 c #226633",
"                              R1R1R1R1R1R1R1R1R1R1Q1P1Q1O1N1M1L1L1N1                            ",
"                          K1R1J1J1I1J1J1J1H1I1G1F1E1D1C1C1B1B1B1Q1O1A1M1                        ",
"                        ;1:1J1J1J1J1J191H1G181F17161C1B151B1P1Q1O1Q1O1K1M1                      ",
"                      K141I1J1I131I121G11101z0y061C1B1P1B1P1Q1O1x0O1K1w0w0M1                    ",
"                      R1J1J1J1v0H1u081t001F1s0s0C1B1r0q0P1Q1O1p0o0w0n0m0l0N1                    ",
"                    R1J131I1k0G1j0i0h0F1F1E1D1O1C1B1B1P1Q1O1K1p0w0w0w0g0f0l0A1      P1M1Q1      ",
"                    m0J1H1G1e0t001h0s0y0E1d0c0C1  L1P1Q1O1p0o0w0n0f0g0f0l0b0M1  O1L1M1N1O1      ",
"                  K1u0G111i0h0a0z0y0Z061D1l0K1C1  M1B1P1x0o0w0g0w0g0f0l0Y0l0Y0M1A1l0Q1P1        ",
"                  R181t001z0s0F1s0d0c0X0c0D1C1      M1Q1o0w0n0f0l0f0l0b0b0b0l0d071b0M1          ",
"                Q1i0t0F1W0s0Z061X0c0D1b0D1O1V0      A1P1x0w0w0g0f0l0Y0l0D1U061c0f0M1            ",
"                O1h0T0F1s0d0c0D1c0b0c0b0b0S0          N1O1w0l0f0l0b0c06171d07161O1Q1            ",
"              P161z0y0E161c0D1U0D1l0D1l0x0C1          M1x0w0f0l0Y0l0D17161R0Q0l0A1              ",
"                O1N1n061c0D1c0b0b0b0b0b0C1              L1f0l0b0c06171s0R0Q0R0L1                ",
"                    P1M1w0l0D1l0f0l0Y0O1C1            M1N1l0D1c0D1c061E1Q0R0P1P1                ",
"                        O1L1g0b0l0b0b0N1        O1L1M1w0l0b071617161R0Q0P0m0M1                  ",
"                            Q1M1w0l0D1M1        A1M1N1M1A1M1N1M1A1M1N1M1A1M1      P1Q1M1        ",
"R1R1R1R1R1R1R1R1R1R1R1R1R1      O1N1M1                                        Q1O1m0l0L1        ",
"W0I1J1J1J1I1J1J1J1O01181S0N0        P1                                    P1P1g0f0l0Y0g0N1      ",
"M1M0F1J1J1J1J1J1H1L08181K0L1                                          Q1O1m0b0b0l0b0b0b0M1      ",
"    M0J0J1k0k0O0u0I0I0H0i0P1Q1                                    P1Q1g0Y0l0Y0l0Y0l0D1l0w0M1    ",
"      R1H1G1O0G18181H001T0F1M1                                  O1m0l0b0b0b0l0b0b0D1b0D1c0N1    ",
"    R181G18111G001a001T0F1s0F0M1                                Q1l0Y0l0f0l0Y0l0D1c0D161D161A1  ",
"    m0G181t0H001T0T0T0F1s0d0c0Q1O1                                Q1b0b0l0b0c0D1c0d0E1d0E1Z0M1  ",
"  K1G181t0a001T0F1y0y0E1d06161c0A1                                P1w0U0D1l0D161d061Z0s0Z0y0Z0M1",
"  R1H0t0E0D0C0F1s0s0E1d0c061c061g0N1                                P1b061D1c0d0s0F1s0F1F1T0s0L1",
"  K1t0T0a0y0y0s0d061D1c0D1c0A1c0D1P1P1                              P1g0d061d0s0F1y0T0y0T0s0Z0M1",
"  R1T0T0Q0s0s0d07161c061c0L1O1N1M1m0M1                                Q171d0s0F1B0T0T0F1s0X0d0N1",
"  K1w0y0Z0E1d0c0D16161c0x0M1      M1N1                    K1N1        P1w0y0y0B0z0y0F1s0F061A0M1",
"    P1d0s0d0c061c061c061C1                                R1M1          O1d0s0F1F1F1s0d0b0m0M1  ",
"    R1g0d061d0c0D1c0D1O1C1                              R1;0V0          Q1g0Z0d0Z061D1b0f0g0A1  ",
"      Q1c0d07161c061c0C1                                ;1J1C1            Q1c0X0c0b0b0b0n0L1    ",
"      K1w06161c0D161K1C1                              K141;0C1            P1K1g0Y0g0Q1M1A1M1    ",
"        R161c061c061C1M0L1N1M1L1L1N1P1Q1O1Q1P1        R1:090M1L1L1Q1M1Q1O1Q1P1Q1L1N1M1Q1L1      ",
"        R1g0D1c0D1O1V0B1B1O1K1w0w0g0f0l0f0l0A1      R18091;0J1H1H1I011a0Z0c0D1g0K1O1x0P1N1      ",
"          R1c061c0S0M1B1O1p0o0w0n0f0b0b0l0b0M1      m09070J160H1O0e0T0y0c0b0l0f0o0Q1O1N1        ",
"          K1W0c0x0C1B1P1x0O1w0g0w0g0Y0l0D161N1    P141;0J1H1k0I0t0a0F161D1l0f0g0K1O1Q1M1        ",
"            P161C1M051Q1p0K1o0m0g0f0l0b0c0s0M1    R150J150H1G14001z0s0d0c0b0n0w0p0Q1M1          ",
"            P1g0C1B1B1O1K130w0g0f0l0D1c061E1A1  Q180J1H1H1O01101h0y0Z0c0D1g0w0p0Q1B1A1          ",
"              Q1C1B1P1p0o0w0n0f0l0b0c0d0Q0Q0M1  ;1:150J1O0G1E001T0F1c0b0l0f0o0p051L1            ",
"              P1J0B1x0O1K1w0w0g0Y0l0D1s0T0T0N1    K1J1H1u081i0F1Z061D1l0w0w0K1O1B1M1            ",
"                L1B1P1p0o0w0g0f0b061c0F12001J0    R110L0G1t0T0W061D1b0f0g0K1o0B1L1              ",
"                  M1P1O1K1g0f0l0f061y0T00180C1      P1j0j001W061D1l0Y0g0K130B1M1                ",
"                    M1N1o0f0b0b0716120018041M1      O1i0t0h0c0d0c0f0g0w0O1L1M1                  ",
"                        A1M1N1M1A1M1N1M1A1M1N1        K11161C1C1C1C1C1C1A1                      ",
"                                                      Q1t061C1                                  ",
"                                                        R1c0V0                                  ",
"                                                        ;100C1                                  ",
"                                                          K1N1                                  "};
