/* XPM */
static char *image[] = {
"48 48 113 2",
"   c None",
"00 c #605060",
"10 c #606060",
"20 c #808070",
"30 c #707070",
"40 c #807090",
"50 c #607060",
"60 c #403040",
"70 c #303030",
"80 c #707090",
"90 c #503050",
":0 c #504050",
";0 c #705070",
"A0 c #708070",
"B0 c #00f020",
"C0 c #b0a0a0",
"D0 c #405060",
"E0 c #100000",
"F0 c #807080",
"G0 c #708080",
"H0 c #405050",
"I0 c #808080",
"J0 c #001000",
"K0 c #808090",
"L0 c #908080",
"M0 c #809080",
"N0 c #908090",
"O0 c #001010",
"P0 c #505070",
"Q0 c #809090",
"R0 c #100010",
"S0 c #9090a0",
"T0 c #101020",
"U0 c #90a090",
"V0 c #505060",
"W0 c #a090a0",
"X0 c #101010",
"Y0 c #605070",
"Z0 c #403070",
"a0 c #302030",
"b0 c #504060",
"c0 c #404050",
"d0 c #605080",
"e0 c #a0a0b0",
"f0 c #504070",
"g0 c #405070",
"h0 c #404070",
"i0 c #505050",
"j0 c #507070",
"k0 c #503060",
"l0 c #404060",
"m0 c #606080",
"n0 c #a0b0a0",
"o0 c #80e0c0",
"p0 c #408070",
"q0 c #304060",
"r0 c #304050",
"s0 c #b0a0b0",
"t0 c #80e0b0",
"u0 c #408060",
"v0 c #402050",
"w0 c #403050",
"x0 c #508070",
"y0 c #80d0b0",
"z0 c #403060",
"01 c #80d0c0",
"11 c #102020",
"21 c #a0b0b0",
"31 c #303060",
"41 c #303050",
"51 c #201020",
"61 c #606070",
"71 c #b0b0b0",
"81 c #301030",
"91 c #302050",
":1 c #303040",
";1 c #a0c0b0",
"A1 c #203040",
"B1 c #302040",
"C1 c #203030",
"D1 c #202040",
"E1 c #201030",
"F1 c #607080",
"G1 c #000000",
"H1 c #202020",
"I1 c #706080",
"J1 c #b0b0c0",
"K1 c #202030",
"L1 c #707080",
"M1 c #c0b0c0",
"N1 c #b0c0b0",
"O1 c #102010",
"P1 c #706090",
"Q1 c #b0d0c0",
"R1 c #c0e0d0",
"S1 c #e0e0f0",
"T1 c #d0f0e0",
"U1 c #90a0a0",
"V1 c #b0c0c0",
"W1 c #c0c0c0",
"X1 c #c0c0d0",
"Y1 c #d0c0d0",
"Z1 c #d0d0d0",
"a1 c #d0d0e0",
"b1 c #e0d0e0",
"c1 c #d0e0d0",
"d1 c #d0e0e0",
"e1 c #e0e0e0",
"f1 c #909090",
"g1 c #c0d0d0",
"h1 c #f0f0f0",
"i1 c #c0d0c0",
"j1 c #a0a0a0",
"  j1j1j1j1j1j1j1j1j1j1j1j1j1j1j1j1j1j1j1j1j1j1j1j1j1j1j1j1j1j1j1j1j1j1j1j1j1j1j1j1j1j1j1j1j1    ",
"j1  i1h1h1h1h1h1h1h1h1h1h1h1h1h1h1h1h1h1h1h1h1h1h1h1h1h1h1h1h1h1h1h1h1h1h1h1h1h1h1h1h1h1g1f1j1  ",
"j1i1e1e1e1d1e1e1e1d1e1e1e1d1e1e1e1d1e1e1e1d1e1e1e1d1e1e1e1c1b1c1a1Z1Z1g1Z1i1Y1i1X1W1W1V1Y1U1    ",
"j1h1T1e1d1S1T1e1d1S1T1e1d1S1T1e1d1S1T1e1d1S1T1e1d1S1T1e1d1d1d1d1R1a1R1Z1g1g1g1X1Q1X1Q1W1V1P1O1  ",
"j1h1e1d1e1e1e1d1e1e1e1d1e1e1e1d1e1e1e1d1e1e1e1d1e1e1e1d1b1c1a1c1Z1Z1Z1i1Y1i1X1i1W1W1W1N1M1L1K1  ",
"j1h1d1S1T1e1d1S1T1e1d1S1T1e1d1S1T1e1d1S1T1e1d1S1d1e1d1d1d1d1c1a1R1Z1g1g1g1X1i1X1V1W1V1J1N1I1H1  ",
"j1h1e1e1e1d1G1G1G1G1G1G1G1G1G1G1G1G1G1G1G1G1G1G1G1G1G1G1G1G1G1G1G1G1G1G1G1G1G1G1G1j1M1N1J1F1E1  ",
"j1h1T1e1d1S1G1G1G1G1G1G1G1D1C1B1A1B1A1B1A1B1A1B1A1B1A1D1K1D1K1K1K1K1K1K1K1K1K1K1K1h1N1J1;1I1H1  ",
"j1h1e1d1e1e1G1G1h1h1h1h1G1K1B1:1B1:191:191:191:1B1B1B1K1B1K1B1K181K1K1K181K1K1K181h17171716151  ",
"j1h1d1S1T1e1G1G1h1j1j1j1G191A1914141413141414191:191A191A1B1D1D1K1K1K1D1K1K1K1D1K1h1;1J121I111  ",
"j1h1e1e1e1d1G1G1h1j1j1j1G1:10141z0y0x0w0x0y0v041w0y091:191u0t0t0B1y0E1K101K1E1K1E1h17121s06151  ",
"j1h1T1e1d1S1G1G1h1j1j1j1G1z0r001q001p001p001q0z0o001t041A101A1B1K101t001o0K1K1K1K1h12171n0m011  ",
"j1h1e1d1e1e1G1G1h1j1j1j1G1w001l0k0t0k0x0z0t0z0y0x041j0y0v0u0y0y0B1t0B1K101K1K1K181h171n0s06151  ",
"j1h1d1S1T1e1G1G1h1i0G1j1G1z0l0h0g0f0l0h0l0z0q0z0q0z041414141A191A1B1K1D1K1K1K1D1K1h1n0e0n0m011  ",
"j1h1e1e1e1d1G1G1h1i0h1j1G1l0k0l0f0l0f0l0z0l0z0w0z041w041v0:191B1B1K1B1K1E1K1E1K1E1h1s0j1j16151  ",
"j1h1T1e1d1S1G1G1h1j1j1j1G1z0l0h0l0f0l0h0l0l0l0z0r0z0r0z04141:191A1B1A1D1K1K1K1K1K1h1n0e0U1d011  ",
"j1h1e1d1e1e1G1G1h1j1j1j1G1c0z0l0k0l0b0l0k0l0z0c0z0w0z041v0:191:1B1a0B1K181K1K1K181h1j1j1j16151  ",
"j1h1d1S1T1e1G1G1h1j1j1j1G1z001z0l0y0x0Z0x0y0q0z0q0y0413141u0t0t0A1y0D1D101K1K1D1K1h1U1e0U1Y0X0  ",
"j1h1e1e1e1d1G1G1h1j1j1j1G141z001z001p001p001z0w0o001t041910191B1B101t001o0K1E1K1E1h1j1U1W0V051  ",
"j1h1T1e1d1S1G1G1h1j1j1j1G1z001z0r0t0q0x0r0t0r0y0x031j0y041u0y0y0A1t0C1D101K1K1K1K1h1U1j1U0Y0X0  ",
"j1h1e1d1e1e1G1G1G1G1G1G1G141z041z0w0z041z0w0z041w041w0:191:1B1:1B1K1B1K181K1K1K181h1W0U0W0V0T0  ",
"j1h1d1S1T1e1G1G1h1h1h1h1G141413141z041z041z0413141414191:191A1B1A1B1K1D1K1K1K1D1K1h1U1S0U0Y0X0  ",
"j1h1e1e1e1d1G1G1h1j1j1j1G1:191:19141v041w041v0:191:191:191:1B1D1B1K181K1E1K1E1K1E1h1W0f1S0V0R0  ",
"j1h1T1e1d1S1G1G1h1j1j1j1G191A141A141414141414141A191A1B1A1B1A1B1K1D1K1K1K1K1K1K1K1h1U0S0Q0P0X0  ",
"j1h1e1d1e1e1G1G1h1j1j1j1G1B101:1B1y0x0:1x0y0B1:1B1y0B1C1B1u0t0t081y0K1K101K1K1K181h1f1f1f1V0X0  ",
"j1h1d1S1T1e1G1G1G1G1G1G1G1B1D101A101p001p001A1B1o001t0B1D101K1D1K101t001o0K1K1D1K1h1Q0f1Q0P0O0  ",
"j1h1e1e1e1c1G1G1h1h1h1h1G1K101K1B1t0B1x0B1t0B1y0x0K1j0y0B1u0y0y0E1t0E1K101K1E1K1E1h1f1Q0N0V0R0  ",
"j1h1T1e1d1d1G1G1h1j1j1j1G1K1K1D1K1D1K1D1K1D1C1D1K1D1K1D1K1K1K1K1K1K1K1K1K1K1K1K1K1h1Q0f1M0V0O0  ",
"j1h1e1c1b1c1G1G1h1j1j1j1G1K1K1K181K1K1K181K1K1K181K1K1K181K1K1K181K1K1K181K1K1K181h1N0M0L0V0R0  ",
"j1h1d1d1d1a1G1G1h1j1j1j1G1K1K1D1K1K1K1D1K1K1K1D1K1K1K1D1K1K1K1D1K1K1K1D1K1K1K1D1K1h1M0K0M0b0J0  ",
"j1h1b1c1a1Z1G1G1G1G1G1G1G1K1E1K1E1K1E1K1E1K1E1K1E1K1E1K1E1K1E1K1E1K1E1K1E1K1E1K1E1h1N0I0I0H0R0  ",
"j1h1c1a1R1a1G1G1G1G1G1G1G1K1K1K1K1K1K1K1K1K1K1K1K1K1K1K1K1K1K1K1K1K1K1K1K1K1K1K1K1h1M0I0G0b0J0  ",
"j1h1Z1c1Z1Z1j1h1h1h1h1h1h1h1h1h1h1h1h1h1h1h1h1h1h1h1h1h1h1h1h1h1h1h1h1h1h1h1h1h1h1h1I0I0F0c0E0  ",
"j1h1g1a1g1Z1g1X1g1X1V1X1V1W1N1J1N1J1217121s0n0e0n0e0j1e0U1j1U1S0U0S0Q0f1Q0f1D0b0D0I0G0I0G0b0G1  ",
"j1h1Z1g1Z1i1Y1i1X1W1W1V1M1N1M1717171s021s0n0C0j1j1j1j1j1W0U0W0f1S0f1f1Q0N0M0b0B0B071F0A0F0c0E0  ",
"j1h1g1Z1g1X1i1X1Q1W1V1W1N1J1N1J121712121n0e0n0j1U1j1U1j1U0S0U0S0Q0f1Q0f1M0K0M07121J1G0F0A0l0J0  ",
"j1h1j1L1I1L1I1L1I1I1I161I161I161;061Y061Y061Y0V0Y0V0Y0V0Y0V0P0V0b0V0b0i0b0:0b0c0b0c0b0c090c0G1  ",
"j180G1G1G1G1G1G1G1G1G1G1G1G1G1G1G1G1G1G1G1G1G1G1G1G1G1G1G1G1G1G1G1G1G1G1G1G1G1G1G1G1G1G1G1G1G1  ",
"                    j1h161c0:0c0:070J121W0Q0F061V0c06070K1H151H1B17060:160                      ",
"                  j1h1j15061506150V0r061G040G061V0c0:1:111E1C1:1i061503061K1                    ",
"                j1h1Z1A0F0I0I020F0I0F01000c0w0:160:160:1w0i0V020F0I0I0M0L061a0                  ",
"              j1h1h1U0S0U0S0U0S0U1W0U0S0U1j1U1j1U1j1U1j1U1j1U1e0U1j1U1e0n0j161K1                ",
"            j1h1h1h1h1h1h1h1h1h1h1h1h1h1h1h1h1h1h1h1h1h1h1h1h1h1h1h1h1h1h1h1h161a0              ",
"            j1h1j1j1j1j1j1j1j1j1j1j1j1j1j1j1j1j1j1j1j1j1j1j1j1j1j1j1j1j1j1j1j1j1G1              ",
"            j1h1j1j1j1j1j1j1j1j1j1j1j1j1j1j1j1j1j1j1j1j1j1j1j1j1j1j1j1j1j1j1j1j1G1G1            ",
"            j1Y0G1G1G1G1G1G1G1G1G1G1G1G1G1G1G1G1G1G1G1G1G1G1G1G1G1G1G1G1G1G1G1G1C1G1            ",
"                                                                                                ",
"                                                                                                "};
