/* XPM */
static char *image[] = {
"48 48 54 1",
"  c None",
"0 c #90a0a0",
"1 c #705040",
"2 c #a0a0a0",
"3 c #c08070",
"4 c #302030",
"5 c #805050",
"6 c #805040",
"7 c #804050",
"8 c #603040",
"9 c #d07080",
": c #705050",
"; c #503040",
"A c #503030",
"B c #504030",
"C c #302020",
"D c #403020",
"E c #303020",
"F c #402030",
"G c #604040",
"H c #d09080",
"I c #603030",
"J c #604030",
"K c #e09090",
"L c #906060",
"M c #e08090",
"N c #d09090",
"O c #a07060",
"P c #a0a090",
"Q c #e08080",
"R c #e09080",
"S c #a06060",
"T c #f0b0a0",
"U c #b06070",
"V c #f0a0a0",
"W c #f0b090",
"X c #b06060",
"Y c #804030",
"Z c #202010",
"a c #201010",
"b c #401010",
"c c #a090a0",
"d c #302010",
"e c #401020",
"f c #402020",
"g c #000000",
"h c #906020",
"i c #905020",
"j c #f09040",
"k c #f0f0f0",
"l c #505050",
"m c #f08050",
"n c #f08040",
"o c #905030",
"                                              on",
"                                             onm",
"  llllllllllllllllllllllllllllllllllllllllllonnn",
"  lkkkkkkkkkkkkkkkkkkkkkkkkkkkkkkkkkkkkkkkkojmjo",
"  lkkkkkkkkkkkkkkkkkkkkkkkkkkkkkkkkkkkkkkkonnnoi",
"  lkkkkkkkkkkkkkkkkkkkkkkkkkkkkkkkkkkkkkkonmjoio",
"  lkkkkkkkkkkkkkkkkkkkkkkkkkkkkkkkkkkkkkonnnoioi",
"  lkkkkkkkkkkkkkkkkkkkkkkkkkkkkkkkkkkkkojmjoioho",
"  lkkklgkglllkklllglklllllklglllkllllkonnnoioioi",
"  lkkkkkkkkkkkkkkkkkkkkkkkkkkkkkkkkkkonmjoioooif",
"  lkkkllllgllkllkllgllllgllkkkkkkkkkonnnoioioied",
"  lkkkkkkkkkkkkkkkkkkkkkkkkkkkkkkkkojmjoiohoifdf",
"  lkkklllllkllllllgllllklllgllllckonnnoioioibdfd",
"  lkkkkkkkkkkkkkkkkkkkkkkkkkkkkkkonmjoioooifdfdf",
"  lkkkkkkllgllgllllkllllllllgkckonnnoioioiedfdea",
"  lkkkkkkkkkkkkkkkkkkkkkkkkkkkkojmjoiohoifdfdfZ ",
"  lkkklgllglllglllllllklllllckonnnoioioibdfdba  ",
"  lkkkkkkkkkkkkkkkkkkkkkkkkkkonmjoioooifdfdfZ   ",
"  lkkkllklllkllllllgllllklckonnnoioioiedfdeag   ",
"  lkkkkkkkkkkkkkkkkkkkkkkkkojmjoiohoifdfdfZgg   ",
"  lkkkgllllllklkkkllkkllckonnnoioioibdfdbaYgg   ",
"  lkkkkkkkkkkkkkkkkkkkkkkonmjoioooifdfdfZYkgg   ",
"  lkkkglklllglkgllllklckXWVnoioioiedfdeaYkkgg   ",
"  lkkkkkkkkkkkkkkkkkkkkUTTToiohoifdfdfZYkkkgg   ",
"  lkkklllgllllllllllglkSVTTRQQoibdfdbaYPlkkgg   ",
"  lkkkkkkkkkkkkkkkkkkkOTTTNMQULfdfdfZYkkkkkgg   ",
"  lkkklllgllllllkkllkkXTVRKQXJIdfdeaYkkkkkkgg   ",
"  lkkkkkkkkkkkkkkkkkkUTTNQHUGFEfDfZYkkkkkkkgg   ",
"  lkkkkkkkkkllkllglPkXTRQQXJfCfDIaYkkkkkkkkgg   ",
"  lkkkkkkkkkkkkkkkkkOTTMQUBFEFA;:Skkkkkkkkkgg   ",
"  lkkkllgllllgllklckXW9QXBfC8A769kklllkkkkkgg   ",
"  lkkkkkkkkkkkkkkkkUN9O5B4EI:53kkkkkkkkkkkkgg   ",
"  lkkkggllkllllllk2S9X5AfA719kkkkkkkkkkkkkkgg   ",
"  lkkkkkkkkkkkkkkkgU:ICFB53kkkkkkkkkkkkkkkkgg   ",
"  lkkklllklglll2klggfCI69kkkkkkkkkkkkkkkkkkgg   ",
"  lkkkkkkkkkkkkkkggag;Lkkkkkkkkkkkkkkkkkkkkgg   ",
"  lkkkkkkkkklllklgggl22klgllllklglllllkkkkkgg   ",
"  lkkkkkkkkkkkkkgglkkkkkkkkkkkkkkkkkkkkkkkkgg   ",
"  lkkkgkllglllklglllgllllkllklllklllglllkkkgg   ",
"  lkkkkkkkkkkkkk02220kkkkkkkkkkkkkkkkkkkkkkgg   ",
"  lkkkkkkkkkkkkkk22Pc22Pkkkkkkkkkkkkkkkkkkkgg   ",
"  lkkkkkkkkkkkkkkk022202220kkkkkkkkkkkkkkkkgg   ",
"  lkkkkkkkkkkkkkkkk22Pc22Pc22Pkkkkkkkkkkkkkgg   ",
"  lgggggggggggggggggggggggggggggggggggggggggg   ",
"   gggggggggggggggggggggggggggggggggggggggggg   ",
"                                                ",
"                                                ",
"                                                "};
