/* XPM */
static char *image[] = {
"48 48 2 1",
"  c None",
"0 c #000000",
"00000000000000000000000000000000000000000000000 ",
"00000000000000000000000000000000000000000000000 ",
"00000000000000000000000000000000000000000000000 ",
"00000000000000000000000000000000000000000000000 ",
"00000000000000000000000000000000000000000000000 ",
"00000000000000000000000000000000000000000000000 ",
"00000000000000000000000000000000000000000000000 ",
"00000000000000000000000000000000000000000000000 ",
"00000000000000000000000000000000000000000000000 ",
"00000000000000000000000000000000000000000000000 ",
"00000000000000000000000000000000000000000000000 ",
"00000000000000000000000000000000000000000000000 ",
"00000000000000000000000000000000000000000000000 ",
"00000000000000000000000000000000000000000000000 ",
"00000000000000000000000000000000000000000000000 ",
"00000000000000000000000000000000000000000000000 ",
"00000000000000000000000000000000000000000000000 ",
"00000000000000000000000000000000000000000000000 ",
"00000000000000000000000000000000000000000000000 ",
"00000000000000000000000000000000000000000000000 ",
"00000000000000000000000000000000000000000000000 ",
"00000000000000000000000000000000000000000000000 ",
"00000000000000000000000000000000000000000000000 ",
"00000000000000000000000000000000000000000000000 ",
"00000000000000000000000000000000000000000000000 ",
"00000000000000000000000000000000000000000000000 ",
"00000000000000000000000000000000000000000000000 ",
"00000000000000000000000000000000000000000000000 ",
"00000000000000000000000000000000000000000000000 ",
"00000000000000000000000000000000000000000000000 ",
"00000000000000000000000000000000000000000000000 ",
"00000000000000000000000000000000000000000000000 ",
"00000000000000000000000000000000000000000000000 ",
"00000000000000000000000000000000000000000000000 ",
"00000000000000000000000000000000000000000000000 ",
"00000000000000000000000000000000000000000000000 ",
"00000000000000000000000000000000000000000000000 ",
"00000000000000000000000000000000000000000000000 ",
"00000000000000000000000000000000000000000000000 ",
"00000000000000000000000000000000000000000000000 ",
"00000000000000000000000000000000000000000000000 ",
"00000000000000000000000000000000000000000000000 ",
"00000000000000000000000000000000000000000000000 ",
"00000000000000000000000000000000000000000000000 ",
"00000000000000000000000000000000000000000000000 ",
"00000000000000000000000000000000000000000000000 ",
"00000000000000000000000000000000000000000000000 ",
"                                                "};
