/* XPM */
static char * Cynthiune_xpm[] = {
"32 32 580 2",
"  	c None",
". 	c #91848F",
"+ 	c #968A91",
"@ 	c #A19696",
"# 	c #AFA69D",
"$ 	c #B0A99C",
"% 	c #AEAA9A",
"& 	c #B1AD9A",
"* 	c #B3AD99",
"= 	c #A39995",
"- 	c #988C91",
"; 	c #A29795",
"> 	c #C7B9A7",
", 	c #EFE0CF",
"' 	c #EADCD3",
") 	c #E0D9CD",
"! 	c #D5DBB8",
"~ 	c #D3E4AE",
"{ 	c #DDEEAE",
"] 	c #DEF5AE",
"^ 	c #E1F8AE",
"/ 	c #E2F4AD",
"( 	c #CACC9D",
"_ 	c #A79E95",
": 	c #92858F",
"< 	c #9A8E91",
"[ 	c #CBBD9A",
"} 	c #F9E3AA",
"| 	c #FCE1BA",
"1 	c #F9DECE",
"2 	c #EFDBD6",
"3 	c #E2D9D1",
"4 	c #D5D9BA",
"5 	c #DBEEAD",
"6 	c #DEF6AF",
"7 	c #DFFAAB",
"8 	c #E1FBA4",
"9 	c #E3FC9D",
"0 	c #E6FB9A",
"a 	c #D0D596",
"b 	c #A09692",
"c 	c #A79C96",
"d 	c #E7D59E",
"e 	c #FFE590",
"f 	c #FEE39D",
"g 	c #FCE1AF",
"h 	c #FBDFC6",
"i 	c #F3DCD5",
"j 	c #E6D9D3",
"k 	c #D7D9BE",
"l 	c #D3E3AF",
"m 	c #DCEEAE",
"n 	c #DEF7AF",
"o 	c #E0FBAA",
"p 	c #E2FBA3",
"q 	c #E4FD9A",
"r 	c #E5FD91",
"s 	c #E7FD8B",
"t 	c #E6F195",
"u 	c #B4AD98",
"v 	c #AFA39C",
"w 	c #F0DBB0",
"x 	c #FFE6A7",
"y 	c #FFE596",
"z 	c #FFE493",
"A 	c #FDE2A4",
"B 	c #FCE0BC",
"C 	c #F7DDD1",
"D 	c #EADAD5",
"E 	c #D3D3BB",
"F 	c #C7D2A5",
"G 	c #CEDCA4",
"H 	c #D0E3A5",
"I 	c #D7EEA2",
"J 	c #E3FBA0",
"K 	c #E5FD97",
"L 	c #E6FD8E",
"M 	c #EAFD8D",
"N 	c #F0FD98",
"O 	c #F1F9A7",
"P 	c #C2BBA1",
"Q 	c #A89D98",
"R 	c #F0DCBC",
"S 	c #FFE5C0",
"T 	c #FFE5B4",
"U 	c #FFE6A4",
"V 	c #FFE593",
"W 	c #FEE399",
"X 	c #DDCAB2",
"Y 	c #AEA79F",
"Z 	c #95949B",
"` 	c #9A9BA7",
" .	c #9798A6",
"..	c #9596A6",
"+.	c #969A9A",
"@.	c #9FA68B",
"#.	c #C3CF8B",
"$.	c #E7FC8C",
"%.	c #EEFD94",
"&.	c #F3FDA2",
"*.	c #F6FDAE",
"=.	c #F6F9AF",
"-.	c #BFB8A0",
";.	c #9B8F92",
">.	c #E3D7B8",
",.	c #F9E5C4",
"'.	c #FCE5C4",
").	c #FFE5B2",
"!.	c #FFE6A0",
"~.	c #F9E091",
"{.	c #BAAE8D",
"].	c #A5A4B1",
"^.	c #BFC0D4",
"/.	c #C1C2D6",
"(.	c #CBCCDB",
"_.	c #C3C4D7",
":.	c #BDBED4",
"<.	c #C7C8D9",
"[.	c #C2C4D6",
"}.	c #B4B6C3",
"|.	c #9EA289",
"1.	c #E3EC9B",
"2.	c #F5FDAC",
"3.	c #F9FDB0",
"4.	c #FBFDB0",
"5.	c #F7F6AF",
"6.	c #AFA49A",
"7.	c #93868F",
"8.	c #C8BFAA",
"9.	c #EEE2C3",
"0.	c #F3E4C4",
"a.	c #F8E5C4",
"b.	c #FFE5BF",
"c.	c #F3DDA9",
"d.	c #AEA68E",
"e.	c #BEC0D2",
"f.	c #C4C5D7",
"g.	c #C1C3D6",
"h.	c #C0C1D5",
"i.	c #C5C6D8",
"j.	c #C0C1D6",
"k.	c #C6C8D9",
"l.	c #C4C6D8",
"m.	c #C2C3D6",
"n.	c #92949A",
"o.	c #DDE0A6",
"p.	c #FBFDAF",
"q.	c #FCFCAF",
"r.	c #FDFCAF",
"s.	c #E8E4AB",
"t.	c #978A91",
"u.	c #A89E99",
"v.	c #E8E6C7",
"w.	c #E7E1C6",
"x.	c #EBE1C3",
"y.	c #F1E4C3",
"z.	c #F7E5C4",
"A.	c #FAE3C3",
"B.	c #B8B0A1",
"C.	c #BEBFD3",
"D.	c #C2C4D7",
"E.	c #C0C2D6",
"F.	c #C5C7D8",
"G.	c #C9CBDA",
"H.	c #BFC1D5",
"I.	c #C8C9D9",
"J.	c #A4A6A6",
"K.	c #F2F2AD",
"L.	c #FEFCAF",
"M.	c #FFFBAE",
"N.	c #FEF9AF",
"O.	c #C1B7A0",
"P.	c #C8C4B0",
"Q.	c #E7EDCF",
"R.	c #E7EACB",
"S.	c #E7E5C8",
"T.	c #E8E1C4",
"U.	c #D0C7AB",
"V.	c #BDBFCF",
"W.	c #C4C5D8",
"X.	c #C3C5D7",
"Y.	c #CCCDDB",
"Z.	c #BEBFD5",
"`.	c #BABAA2",
" +	c #FFF9AE",
".+	c #FFF8AE",
"++	c #E8E0AB",
"@+	c #E6F0D4",
"#+	c #E7F4D9",
"$+	c #E7F2D5",
"%+	c #E7EED0",
"&+	c #E7EACA",
"*+	c #E7E4C6",
"=+	c #BAB8B8",
"-+	c #C8C9D7",
";+	c #C2C3D3",
">+	c #C3C3D3",
",+	c #C5C5D2",
"'+	c #C0C1D1",
")+	c #C5C6D2",
"!+	c #C8C9D3",
"~+	c #C9C9D3",
"{+	c #BEC0CE",
"]+	c #C3C3D1",
"^+	c #C4C4D3",
"/+	c #C2C3D4",
"(+	c #C5C6D6",
"_+	c #B5B6C2",
":+	c #F0EBAC",
"<+	c #FFF7AE",
"[+	c #FFF6AE",
"}+	c #FCF2AE",
"|+	c #A59996",
"1+	c #A59B99",
"2+	c #E7F8D8",
"3+	c #E6F9DB",
"4+	c #E7F8DA",
"5+	c #E7F6D9",
"6+	c #E7F3D6",
"7+	c #E0E6C7",
"8+	c #BABBC2",
"9+	c #C2C3CA",
"0+	c #CCCDCC",
"a+	c #C7C6C7",
"b+	c #C7C8C5",
"c+	c #BFBEBB",
"d+	c #B6B6B0",
"e+	c #B4B3AF",
"f+	c #C9C9C0",
"g+	c #C6C6C1",
"h+	c #C3C4C1",
"i+	c #C5C5C5",
"j+	c #C9CACB",
"k+	c #C6C7CB",
"l+	c #C0C0CB",
"m+	c #DBD7AC",
"n+	c #FFF4AE",
"o+	c #FFF2AE",
"p+	c #FEF2AE",
"q+	c #C1B59F",
"r+	c #B5B0A4",
"s+	c #E6FBD3",
"t+	c #E6FBD6",
"u+	c #E6FBD8",
"v+	c #E6FBD9",
"w+	c #E7F9DA",
"x+	c #D9E6C6",
"y+	c #C0C0BA",
"z+	c #C7C6BC",
"A+	c #CDCCBC",
"B+	c #CDCDBA",
"C+	c #B9B8A7",
"D+	c #C6C5B0",
"E+	c #CECDB4",
"F+	c #CAC8B2",
"G+	c #CCCBB3",
"H+	c #CAC8AF",
"I+	c #C0BFA7",
"J+	c #C6C4B2",
"K+	c #CAC9B7",
"L+	c #CBC9B8",
"M+	c #CBCABB",
"N+	c #C8C7BD",
"O+	c #C7C7BF",
"P+	c #DFDAB2",
"Q+	c #FEF0AE",
"R+	c #FDF0AE",
"S+	c #D6CBA6",
"T+	c #B7B4A5",
"U+	c #E5FBCA",
"V+	c #E5FBCC",
"W+	c #E6FBCE",
"X+	c #E6FBD0",
"Y+	c #D8E9C0",
"Z+	c #B4B99F",
"`+	c #C7C6B0",
" @	c #CCCAAE",
".@	c #CECCAC",
"+@	c #CBC8A5",
"@@	c #CAC8A3",
"#@	c #CECCA5",
"$@	c #C6C39D",
"%@	c #ADAB8B",
"&@	c #CECBA0",
"*@	c #D3D0A5",
"=@	c #C8C59E",
"-@	c #C6C3A0",
";@	c #CECCA7",
">@	c #CECBA9",
",@	c #CDCCAB",
"'@	c #CDCCAE",
")@	c #CCCAB2",
"!@	c #DFDAAC",
"~@	c #FDF0AD",
"{@	c #FDEFAD",
"]@	c #FDEFAC",
"^@	c #DBCEA5",
"/@	c #B5B4A2",
"(@	c #E4F9BF",
"_@	c #E4F9C1",
":@	c #D7E6B1",
"<@	c #ABAF8F",
"[@	c #CDCAA7",
"}@	c #CECBA5",
"|@	c #CFCDA1",
"1@	c #D1CE9F",
"2@	c #BDBA8C",
"3@	c #D4CF9A",
"4@	c #CFCB95",
"5@	c #D4D095",
"6@	c #D9D49A",
"7@	c #BCB988",
"8@	c #D0CD98",
"9@	c #D1CD9B",
"0@	c #D2CF9E",
"a@	c #D2CEA2",
"b@	c #D0CDA5",
"c@	c #E5DFA8",
"d@	c #FCEDAA",
"e@	c #FCECAA",
"f@	c #FCEBAA",
"g@	c #DACBA1",
"h@	c #B5B49E",
"i@	c #E2F7B3",
"j@	c #E1F7B2",
"k@	c #E1F5B1",
"l@	c #DEE4AA",
"m@	c #D5D19F",
"n@	c #D5D19A",
"o@	c #D1CE94",
"p@	c #D4CF91",
"q@	c #BAB67C",
"r@	c #D9D48E",
"s@	c #CAC682",
"t@	c #D2CD85",
"u@	c #DBD68B",
"v@	c #BDB778",
"w@	c #D2CD8A",
"x@	c #D6D28E",
"y@	c #DFDB9A",
"z@	c #EAE5A4",
"A@	c #F0E8A8",
"B@	c #F7E7A7",
"C@	c #FAE7A7",
"D@	c #D9C9A1",
"E@	c #B5AF9C",
"F@	c #E1F4A8",
"G@	c #E2F4A7",
"H@	c #E3F4A7",
"I@	c #E0EFA3",
"J@	c #C9CC8F",
"K@	c #DAD593",
"L@	c #D7D38D",
"M@	c #D6D188",
"N@	c #D8D384",
"O@	c #BDB771",
"P@	c #DED881",
"Q@	c #D9D37C",
"R@	c #C4BE6F",
"S@	c #CEC97B",
"T@	c #C3BD6D",
"U@	c #DDD67A",
"V@	c #DBD47B",
"W@	c #C8C271",
"X@	c #E5DE91",
"Y@	c #F3E7A2",
"Z@	c #F7E1A3",
"`@	c #F8DFA3",
" #	c #F9E1A5",
".#	c #F9E2A5",
"+#	c #D5C5A1",
"@#	c #A49B95",
"##	c #E6F1A7",
"$#	c #E5F2A4",
"%#	c #E6F2A4",
"&#	c #DCE59C",
"*#	c #CCCB88",
"=#	c #DDD888",
"-#	c #DAD481",
";#	c #DBD57C",
">#	c #DBD478",
",#	c #D6CF72",
"'#	c #C5BF65",
")#	c #DFD871",
"!#	c #E0D86F",
"~#	c #DDD66D",
"{#	c #DFD76D",
"]#	c #DDD66C",
"^#	c #BDB65E",
"/#	c #EFE396",
"(#	c #F4D89F",
"_#	c #F5D9A0",
":#	c #F6DAA1",
"<#	c #F7DBA2",
"[#	c #F7DDA3",
"}#	c #F8DEA3",
"|#	c #F7DEA3",
"1#	c #BFAF9B",
"2#	c #E6EEA6",
"3#	c #E5F1A2",
"4#	c #E6F1A2",
"5#	c #E6F0A1",
"6#	c #DFE092",
"7#	c #DFD87C",
"8#	c #DFD877",
"9#	c #DED771",
"0#	c #DFD86A",
"a#	c #CEC75D",
"b#	c #BEB854",
"c#	c #DED65F",
"d#	c #E1D85F",
"e#	c #DBD35D",
"f#	c #B9B24E",
"g#	c #E6DC88",
"h#	c #F1D29B",
"i#	c #F3D39E",
"j#	c #F4D49F",
"k#	c #F5D6A0",
"l#	c #F5D8A0",
"m#	c #F5D9A1",
"n#	c #F6DBA2",
"o#	c #F5DCA3",
"p#	c #A49695",
"q#	c #C8C5A0",
"r#	c #E8F2A2",
"s#	c #E9F2A1",
"t#	c #EBF2A0",
"u#	c #DFDE8D",
"v#	c #E0D872",
"w#	c #E2DA6C",
"x#	c #E3DB6C",
"y#	c #E9E277",
"z#	c #E3DA60",
"A#	c #E5DC5A",
"B#	c #E2D956",
"C#	c #CAC24A",
"D#	c #C2BA46",
"E#	c #CBC249",
"F#	c #E4D95F",
"G#	c #EFD39A",
"H#	c #F1D09C",
"I#	c #F2D29C",
"J#	c #F3D29D",
"K#	c #F3D49E",
"L#	c #F4D59F",
"M#	c #F5D7A0",
"N#	c #E4CEA1",
"O#	c #A79D96",
"P#	c #ECF1A2",
"Q#	c #EDF3A0",
"R#	c #EFF4A0",
"S#	c #F1F49F",
"T#	c #F3F49E",
"U#	c #F4F49C",
"V#	c #F3F29A",
"W#	c #F1EE98",
"X#	c #F3EE96",
"Y#	c #E8DD53",
"Z#	c #E9DF4C",
"`#	c #E9DE4A",
" $	c #EADF47",
".$	c #E7DC46",
"+$	c #ECE372",
"@$	c #EFCF9A",
"#$	c #F0D09B",
"$$	c #F1D19C",
"%$	c #F2D29D",
"&$	c #F5D59F",
"*$	c #F4D8A0",
"=$	c #C0AF9B",
"-$	c #CDC99F",
";$	c #F1F5A0",
">$	c #F2F69F",
",$	c #F3F79E",
"'$	c #F2F29D",
")$	c #F2EF9C",
"!$	c #F1EB9C",
"~$	c #F1E79B",
"{$	c #EFE47C",
"]$	c #ECE041",
"^$	c #EDE23D",
"/$	c #EDE13B",
"($	c #EBDF39",
"_$	c #D1C845",
":$	c #E4CE87",
"<$	c #F0CF9B",
"[$	c #F1D09B",
"}$	c #F3D29E",
"|$	c #E4CB9F",
"1$	c #968990",
"2$	c #9C9092",
"3$	c #E3E49F",
"4$	c #F3F69D",
"5$	c #F3F49D",
"6$	c #F2F19D",
"7$	c #F2EE9C",
"8$	c #F1E79C",
"9$	c #F0E39B",
"0$	c #F0E397",
"a$	c #EEE138",
"b$	c #F0E432",
"c$	c #EFE32F",
"d$	c #F0E32E",
"e$	c #ECDF2D",
"f$	c #BEB235",
"g$	c #DAC77E",
"h$	c #F2D19C",
"i$	c #EED29E",
"j$	c #AE9E96",
"k$	c #A79D95",
"l$	c #E9E89D",
"m$	c #F2F09D",
"n$	c #F1E89C",
"o$	c #F0E49B",
"p$	c #F0E09B",
"q$	c #F0DD9A",
"r$	c #F2E67F",
"s$	c #F4E86C",
"t$	c #F5E86A",
"u$	c #F5E769",
"v$	c #F4E669",
"w$	c #F4E66B",
"x$	c #DBCE6B",
"y$	c #DECC82",
"z$	c #F1D19B",
"A$	c #F1D29C",
"B$	c #F0D19C",
"C$	c #BEAC98",
"D$	c #B0A597",
"E$	c #E8E49D",
"F$	c #F0E89B",
"G$	c #F0E59B",
"H$	c #F0E29B",
"I$	c #F0DE9B",
"J$	c #F0DB9B",
"K$	c #EFD99B",
"L$	c #EFD59B",
"M$	c #EFD39B",
"N$	c #EFD29B",
"O$	c #EFD09B",
"P$	c #EFCF9B",
"Q$	c #F0CF9A",
"R$	c #EED09C",
"S$	c #C4B098",
"T$	c #AA9F96",
"U$	c #E1D99D",
"V$	c #F1E69C",
"W$	c #F0E39A",
"X$	c #F0DD9B",
"Y$	c #EFDA9B",
"Z$	c #EFD89B",
"`$	c #EFD19B",
" %	c #EACE9C",
".%	c #B9A797",
"+%	c #998C91",
"@%	c #C8BD9A",
"#%	c #EEE2A0",
"$%	c #EFD79B",
"%%	c #EFD09A",
"&%	c #EFD19D",
"*%	c #D7C09B",
"=%	c #A39593",
"-%	c #A09393",
";%	c #C6B99A",
">%	c #E2D19D",
",%	c #EED99E",
"'%	c #EED69B",
")%	c #EFD49B",
"!%	c #EED19C",
"~%	c #E7CC9D",
"{%	c #D0BA9B",
"]%	c #A99994",
"^%	c #A09392",
"/%	c #B2A496",
"(%	c #B7A795",
"_%	c #B7A593",
":%	c #B7A594",
"<%	c #B6A697",
"[%	c #A49693",
"}%	c #95878F",
"                        . . . . . . .                           ",
"                  . . + @ # $ % & * = - . .                     ",
"              . . ; > , ' ) ! ~ { ] ^ / ( _ : .                 ",
"            . < [ } | 1 2 3 4 ~ 5 6 7 8 9 0 a b .               ",
"          . c d e f g h i j k l m n o p q r s t u .             ",
"        . v w x y z A B C D E F G H I J K L M N O P .           ",
"      . Q R S T U V W g X Y Z `  ...+.@.#.$.%.&.*.=.-..         ",
"    . ;.>.,.'.S ).!.~.{.].^./.(._.:.<.[.}.|.1.2.3.4.5.6..       ",
"    7.8.9.0.a.'.b.c.d.e.f.g.h.<.i.j.f.k.l.m.n.o.p.q.r.s.t.      ",
"  . u.v.w.x.y.z.A.B.C._.D.E.g.F.G.H./.I./.k.f.J.K.L.M.N.O..     ",
"  . P.Q.R.S.T.9.U.V.i.g._.W.E.X.Y._.Z.F._.F.X.^.`.M. +.+++.     ",
"  - @+#+$+%+&+*+=+[.-+;+>+,+'+)+!+~+{+]+^+/+(+m._+:+<+[+}+|+    ",
". 1+2+3+4+5+6+7+8+9+0+a+b+c+d+e+d+f+g+h+b+i+j+k+l+m+n+o+p+q+.   ",
". r+s+t+u+v+w+x+y+z+A+B+C+D+E+F+G+H+I+J+K+L+M+N+O+P+Q+R+R+S+.   ",
". T+U+V+W+X+Y+Z+`+ @.@+@@@#@$@%@&@*@=@-@;@>@,@'@)@!@~@{@]@^@.   ",
". /@(@_@_@:@<@[@}@|@1@2@3@4@      5@6@7@8@9@0@a@b@c@d@e@f@g@.   ",
". h@i@j@i@k@l@m@n@o@p@q@r@s@      t@u@v@w@x@y@z@A@B@C@C@C@D@.   ",
". E@F@G@H@I@J@K@L@M@N@O@P@Q@R@S@T@U@V@W@X@Y@Z@`@ #.#.#.#.#+#.   ",
". @###$#%#&#*#=#-#;#>#,#'#)#!#~#{#]#^#/#(#_#:#<#[#[#}#|#`@1#    ",
"  t.2#3#4#5#6#7#8#9#{#0#a#b#c#d#e#f#g#h#i#j#k#l#m#:#n#<#o#p#    ",
"  . q#r#s#t#u#v#w#x#y#z#A#B#C#D#E#F#G#H#I#J#K#L#k#M#l#_#N#:     ",
"  . O#P#Q#R#S#T#U#V#W#X#Y#Z#`# $.$+$@$#$$$I#%$i#K#L#&$*$=$.     ",
"    . -$;$>$,$T#'$)$!$~${$]$^$/$($_$:$<$[$H#I#I#}$J#K#|$1$      ",
"    . 2$3$4$5$6$7$!$8$9$0$a$b$c$d$e$f$g$<$[$H#$$I#h$i$j$.       ",
"      . k$l$m$7$!$n$o$p$q$r$s$t$u$v$w$x$y$<$H#z$A$B$C$.         ",
"        . D$E$!$F$G$H$I$J$K$L$M$N$O$P$P$<$<$Q$<$R$S$.           ",
"          . T$U$V$W$p$X$Y$Z$L$M$N$`$O$P$<$Q$<$ %.%.             ",
"            . +%@%#%I$J$K$$%G#M$%%O$@$P$P$&%*%=%.               ",
"                . -%;%>%,%'%)%N$N$N$!%~%{%]%. .                 ",
"                  . . 7.^%/%(%_%:%<%[%}%. .                     ",
"                        . . . . . . .                           ",
"                                                                "};
